M48
METRIC,LZ,000.000
;FILE_FORMAT=3:3
;TYPE=PLATED
;Layer: PTH_Through
;EasyEDA v6.5.3, 2022-04-03 17:45:16
;78107e5fb92a4dff92b191d725c0db84,37927428d3cb42c68971fe41ce46a6a6,10
;Gerber Generator version 0.2
;Holesize 1 = 0.200 mm
T01C0.200
;Holesize 2 = 0.306 mm
T02C0.306
;Holesize 3 = 0.800 mm
T03C0.800
;Holesize 4 = 0.889 mm
T04C0.889
%
G05
G90
T01
X006020Y000741
X006020Y001757
X006020Y-001418
X006020Y002773
X006020Y003916
X-003302Y001270
X-003302Y002286
X-003302Y-001778
X000889Y001270
X-003302Y-002540
X-003302Y004318
X-003302Y003429
X-029718Y-003684
X-030099Y-002794
X-030861Y-003684
X-030480Y-003175
X-016002Y-030607
X-029718Y-021083
X-030099Y-023496
X-030480Y-033529
X014351Y-021337
X013462Y-022225
X012700Y-022987
X011938Y-023750
X011303Y-024385
X-018161Y-033909
X-018161Y-035434
X-017018Y-036322
X-016256Y-037084
X-010795Y-013843
X-005080Y-002667
X-012319Y-015621
X-023876Y-019812
X-009906Y-016383
X-009271Y-016891
X-023876Y-018161
X-025908Y-020955
X-008382Y-017400
X-010033Y-032639
X-036957Y-032259
X-036957Y-029083
X-032766Y-015113
X-032766Y-016002
X016129Y-020194
X-007747Y-015875
X006350Y-006604
X001270Y-012827
X-001143Y-019939
X-017145Y-020193
X-028575Y-019558
X-013081Y-015113
X009144Y-007366
X009144Y-003429
X-027559Y-014224
X-029083Y-021844
T02
X-031750Y000254
X-029083Y000254
X-004944Y010774
X-025857Y-031009
X-024689Y-029841
X-030429Y-034692
X-031191Y-035454
X000559Y-031027
X-017960Y012194
X-016291Y013863
X-017602Y-000275
X-011379Y000036
X-006299Y-001418
X-001397Y-003897
X003317Y-003938
X-023876Y-031496
X-023876Y-033020
X-025781Y-032893
X004699Y013970
X-007239Y014605
T03
X-005410Y-028442
X-005410Y-033322
X-005189Y016719G85X-005189Y014219
X-012489Y016719G85X-012489Y014219
T04
X007239Y016256
X004699Y016256
X002159Y016256
X-000381Y016256
X-029032Y002138
X-031572Y002138
X-029032Y004678
X-031572Y004678
X-029032Y007218
X-031572Y007218
X022276Y-023516
X022276Y-026056
X022276Y-028596
X022276Y-031136
X022276Y-033676
X022276Y-036216
M30
