G04 Layer: TopLayer*
G04 EasyEDA v6.5.3, 2022-04-03 17:45:16*
G04 78107e5fb92a4dff92b191d725c0db84,37927428d3cb42c68971fe41ce46a6a6,10*
G04 Gerber Generator version 0.2*
G04 Scale: 100 percent, Rotated: No, Reflected: No *
G04 Dimensions in millimeters *
G04 leading zeros omitted , absolute positions ,4 integer and 5 decimal *
%FSLAX45Y45*%
%MOMM*%

%ADD11C,0.2000*%
%ADD12C,0.1000*%
%ADD13C,0.2500*%
%ADD14C,0.4480*%
%ADD15C,0.2032*%
%ADD16C,0.6100*%
%ADD17C,0.4000*%
%ADD21R,0.9000X0.8000*%
%ADD22R,0.9500X1.1500*%
%ADD23R,0.8640X0.8065*%
%ADD24R,0.5000X1.4000*%
%ADD25R,1.5748X1.5748*%
%ADD26C,1.5748*%
%ADD27C,1.8000*%
%ADD28C,1.4000*%

%LPD*%
D15*
X-3677894Y771855D02*
G01*
X-3677894Y676351D01*
X-3677894Y771855D02*
G01*
X-3641572Y676351D01*
X-3605250Y771855D02*
G01*
X-3641572Y676351D01*
X-3605250Y771855D02*
G01*
X-3605250Y676351D01*
X-3547846Y771855D02*
G01*
X-3556990Y767283D01*
X-3566134Y758393D01*
X-3570706Y749249D01*
X-3575278Y735533D01*
X-3575278Y712927D01*
X-3570706Y699211D01*
X-3566134Y690067D01*
X-3556990Y680923D01*
X-3547846Y676351D01*
X-3529812Y676351D01*
X-3520668Y680923D01*
X-3511524Y690067D01*
X-3506952Y699211D01*
X-3502380Y712927D01*
X-3502380Y735533D01*
X-3506952Y749249D01*
X-3511524Y758393D01*
X-3520668Y767283D01*
X-3529812Y771855D01*
X-3547846Y771855D01*
X-3408908Y758393D02*
G01*
X-3417798Y767283D01*
X-3431514Y771855D01*
X-3449802Y771855D01*
X-3463264Y767283D01*
X-3472408Y758393D01*
X-3472408Y749249D01*
X-3467836Y740105D01*
X-3463264Y735533D01*
X-3454374Y730961D01*
X-3426942Y721817D01*
X-3417798Y717499D01*
X-3413226Y712927D01*
X-3408908Y703783D01*
X-3408908Y690067D01*
X-3417798Y680923D01*
X-3431514Y676351D01*
X-3449802Y676351D01*
X-3463264Y680923D01*
X-3472408Y690067D01*
X-3378682Y771855D02*
G01*
X-3378682Y676351D01*
X-3665194Y505155D02*
G01*
X-3665194Y409651D01*
X-3665194Y505155D02*
G01*
X-3628872Y409651D01*
X-3592550Y505155D02*
G01*
X-3628872Y409651D01*
X-3592550Y505155D02*
G01*
X-3592550Y409651D01*
X-3562578Y505155D02*
G01*
X-3562578Y409651D01*
X-3468852Y491693D02*
G01*
X-3477996Y500583D01*
X-3491458Y505155D01*
X-3509746Y505155D01*
X-3523462Y500583D01*
X-3532352Y491693D01*
X-3532352Y482549D01*
X-3528034Y473405D01*
X-3523462Y468833D01*
X-3514318Y464261D01*
X-3486886Y455117D01*
X-3477996Y450799D01*
X-3473424Y446227D01*
X-3468852Y437083D01*
X-3468852Y423367D01*
X-3477996Y414223D01*
X-3491458Y409651D01*
X-3509746Y409651D01*
X-3523462Y414223D01*
X-3532352Y423367D01*
X-3411448Y505155D02*
G01*
X-3420592Y500583D01*
X-3429736Y491693D01*
X-3434308Y482549D01*
X-3438880Y468833D01*
X-3438880Y446227D01*
X-3434308Y432511D01*
X-3429736Y423367D01*
X-3420592Y414223D01*
X-3411448Y409651D01*
X-3393414Y409651D01*
X-3384270Y414223D01*
X-3375126Y423367D01*
X-3370554Y432511D01*
X-3365982Y446227D01*
X-3365982Y468833D01*
X-3370554Y482549D01*
X-3375126Y491693D01*
X-3384270Y500583D01*
X-3393414Y505155D01*
X-3411448Y505155D01*
X-3624300Y237693D02*
G01*
X-3624300Y155651D01*
X-3665194Y196799D02*
G01*
X-3583406Y196799D01*
X-3498824Y251155D02*
G01*
X-3544290Y251155D01*
X-3548862Y210261D01*
X-3544290Y214833D01*
X-3530574Y219405D01*
X-3517112Y219405D01*
X-3503396Y214833D01*
X-3494252Y205689D01*
X-3489680Y192227D01*
X-3489680Y183083D01*
X-3494252Y169367D01*
X-3503396Y160223D01*
X-3517112Y155651D01*
X-3530574Y155651D01*
X-3544290Y160223D01*
X-3548862Y164795D01*
X-3553434Y173939D01*
X-3459708Y251155D02*
G01*
X-3423386Y155651D01*
X-3387064Y251155D02*
G01*
X-3423386Y155651D01*
X-2593822Y228549D02*
G01*
X-2598140Y237693D01*
X-2607284Y246583D01*
X-2616428Y251155D01*
X-2634716Y251155D01*
X-2643606Y246583D01*
X-2652750Y237693D01*
X-2657322Y228549D01*
X-2661894Y214833D01*
X-2661894Y192227D01*
X-2657322Y178511D01*
X-2652750Y169367D01*
X-2643606Y160223D01*
X-2634716Y155651D01*
X-2616428Y155651D01*
X-2607284Y160223D01*
X-2598140Y169367D01*
X-2593822Y178511D01*
X-2593822Y192227D01*
X-2616428Y192227D02*
G01*
X-2593822Y192227D01*
X-2563596Y251155D02*
G01*
X-2563596Y155651D01*
X-2563596Y251155D02*
G01*
X-2500096Y155651D01*
X-2500096Y251155D02*
G01*
X-2500096Y155651D01*
X-2470124Y251155D02*
G01*
X-2470124Y155651D01*
X-2470124Y251155D02*
G01*
X-2438374Y251155D01*
X-2424658Y246583D01*
X-2415514Y237693D01*
X-2410942Y228549D01*
X-2406370Y214833D01*
X-2406370Y192227D01*
X-2410942Y178511D01*
X-2415514Y169367D01*
X-2424658Y160223D01*
X-2438374Y155651D01*
X-2470124Y155651D01*
X-2598140Y491693D02*
G01*
X-2607284Y500583D01*
X-2621000Y505155D01*
X-2639288Y505155D01*
X-2652750Y500583D01*
X-2661894Y491693D01*
X-2661894Y482549D01*
X-2657322Y473405D01*
X-2652750Y468833D01*
X-2643606Y464261D01*
X-2616428Y455117D01*
X-2607284Y450799D01*
X-2602712Y446227D01*
X-2598140Y437083D01*
X-2598140Y423367D01*
X-2607284Y414223D01*
X-2621000Y409651D01*
X-2639288Y409651D01*
X-2652750Y414223D01*
X-2661894Y423367D01*
X-2500096Y482549D02*
G01*
X-2504668Y491693D01*
X-2513812Y500583D01*
X-2522702Y505155D01*
X-2540990Y505155D01*
X-2550134Y500583D01*
X-2559278Y491693D01*
X-2563596Y482549D01*
X-2568168Y468833D01*
X-2568168Y446227D01*
X-2563596Y432511D01*
X-2559278Y423367D01*
X-2550134Y414223D01*
X-2540990Y409651D01*
X-2522702Y409651D01*
X-2513812Y414223D01*
X-2504668Y423367D01*
X-2500096Y432511D01*
X-2470124Y505155D02*
G01*
X-2470124Y409651D01*
X-2406370Y505155D02*
G01*
X-2470124Y441655D01*
X-2447264Y464261D02*
G01*
X-2406370Y409651D01*
X-2679700Y761238D02*
G01*
X-2679700Y665734D01*
X-2679700Y761238D02*
G01*
X-2638806Y761238D01*
X-2625090Y756665D01*
X-2620518Y752094D01*
X-2615945Y743204D01*
X-2615945Y734060D01*
X-2620518Y724915D01*
X-2625090Y720344D01*
X-2638806Y715772D01*
X-2679700Y715772D01*
X-2647950Y715772D02*
G01*
X-2615945Y665734D01*
X-2585974Y761238D02*
G01*
X-2585974Y665734D01*
X-2585974Y761238D02*
G01*
X-2527045Y761238D01*
X-2585974Y715772D02*
G01*
X-2549652Y715772D01*
X-2585974Y665734D02*
G01*
X-2527045Y665734D01*
X-2433320Y747776D02*
G01*
X-2442463Y756665D01*
X-2456179Y761238D01*
X-2474213Y761238D01*
X-2487929Y756665D01*
X-2497074Y747776D01*
X-2497074Y738631D01*
X-2492502Y729488D01*
X-2487929Y724915D01*
X-2478786Y720344D01*
X-2451607Y711200D01*
X-2442463Y706881D01*
X-2437891Y702310D01*
X-2433320Y693165D01*
X-2433320Y679450D01*
X-2442463Y670306D01*
X-2456179Y665734D01*
X-2474213Y665734D01*
X-2487929Y670306D01*
X-2497074Y679450D01*
X-2403347Y761238D02*
G01*
X-2403347Y665734D01*
X-2403347Y761238D02*
G01*
X-2344165Y761238D01*
X-2403347Y715772D02*
G01*
X-2367025Y715772D01*
X-2403347Y665734D02*
G01*
X-2344165Y665734D01*
X-2282443Y761238D02*
G01*
X-2282443Y665734D01*
X-2314193Y761238D02*
G01*
X-2250693Y761238D01*
X838225Y-2269540D02*
G01*
X838225Y-2441244D01*
X838225Y-2441244D02*
G01*
X936269Y-2441244D01*
X990371Y-2269540D02*
G01*
X990371Y-2441244D01*
X990371Y-2269540D02*
G01*
X1096797Y-2269540D01*
X990371Y-2351328D02*
G01*
X1055903Y-2351328D01*
X990371Y-2441244D02*
G01*
X1096797Y-2441244D01*
X1150645Y-2269540D02*
G01*
X1150645Y-2441244D01*
X1150645Y-2269540D02*
G01*
X1208049Y-2269540D01*
X1232687Y-2277668D01*
X1248943Y-2293924D01*
X1257071Y-2310434D01*
X1265199Y-2334818D01*
X1265199Y-2375712D01*
X1257071Y-2400350D01*
X1248943Y-2416860D01*
X1232687Y-2433116D01*
X1208049Y-2441244D01*
X1150645Y-2441244D01*
X1384833Y-2269540D02*
G01*
X1319301Y-2441244D01*
X1384833Y-2269540D02*
G01*
X1450111Y-2441244D01*
X1343939Y-2384094D02*
G01*
X1425727Y-2384094D01*
X1630197Y-2302306D02*
G01*
X1646453Y-2293924D01*
X1671091Y-2269540D01*
X1671091Y-2441244D01*
X1888769Y-2343200D02*
G01*
X1888769Y-2334818D01*
X1880641Y-2326690D01*
X1872259Y-2326690D01*
X1864131Y-2334818D01*
X1856003Y-2351328D01*
X1839747Y-2392222D01*
X1823237Y-2416860D01*
X1806981Y-2433116D01*
X1790471Y-2441244D01*
X1757959Y-2441244D01*
X1741449Y-2433116D01*
X1733321Y-2424988D01*
X1725193Y-2408478D01*
X1725193Y-2392222D01*
X1733321Y-2375712D01*
X1741449Y-2367584D01*
X1798853Y-2334818D01*
X1806981Y-2326690D01*
X1815109Y-2310434D01*
X1815109Y-2293924D01*
X1806981Y-2277668D01*
X1790471Y-2269540D01*
X1774215Y-2277668D01*
X1766087Y-2293924D01*
X1766087Y-2310434D01*
X1774215Y-2334818D01*
X1790471Y-2359456D01*
X1831365Y-2416860D01*
X1847875Y-2433116D01*
X1864131Y-2441244D01*
X1880641Y-2441244D01*
X1888769Y-2433116D01*
X1888769Y-2424988D01*
X1950999Y-2310434D02*
G01*
X1950999Y-2302306D01*
X1959127Y-2285796D01*
X1967255Y-2277668D01*
X1983765Y-2269540D01*
X2016277Y-2269540D01*
X2032787Y-2277668D01*
X2040915Y-2285796D01*
X2049043Y-2302306D01*
X2049043Y-2318562D01*
X2040915Y-2334818D01*
X2024659Y-2359456D01*
X1942871Y-2441244D01*
X2057171Y-2441244D01*
X842286Y-2523540D02*
G01*
X842286Y-2695244D01*
X842286Y-2695244D02*
G01*
X940330Y-2695244D01*
X994432Y-2523540D02*
G01*
X994432Y-2695244D01*
X994432Y-2523540D02*
G01*
X1100858Y-2523540D01*
X994432Y-2605328D02*
G01*
X1059964Y-2605328D01*
X994432Y-2695244D02*
G01*
X1100858Y-2695244D01*
X1154706Y-2523540D02*
G01*
X1154706Y-2695244D01*
X1154706Y-2523540D02*
G01*
X1212110Y-2523540D01*
X1236748Y-2531668D01*
X1253004Y-2547924D01*
X1261132Y-2564434D01*
X1269260Y-2588818D01*
X1269260Y-2629712D01*
X1261132Y-2654350D01*
X1253004Y-2670860D01*
X1236748Y-2687116D01*
X1212110Y-2695244D01*
X1154706Y-2695244D01*
X1323362Y-2523540D02*
G01*
X1323362Y-2695244D01*
X1437916Y-2523540D02*
G01*
X1323362Y-2638094D01*
X1364256Y-2597200D02*
G01*
X1437916Y-2695244D01*
X1618002Y-2556306D02*
G01*
X1634258Y-2547924D01*
X1658896Y-2523540D01*
X1658896Y-2695244D01*
X1876320Y-2597200D02*
G01*
X1876320Y-2588818D01*
X1868192Y-2580690D01*
X1860064Y-2580690D01*
X1851936Y-2588818D01*
X1843808Y-2605328D01*
X1827298Y-2646222D01*
X1811042Y-2670860D01*
X1794532Y-2687116D01*
X1778276Y-2695244D01*
X1745510Y-2695244D01*
X1729254Y-2687116D01*
X1720872Y-2678988D01*
X1712744Y-2662478D01*
X1712744Y-2646222D01*
X1720872Y-2629712D01*
X1729254Y-2621584D01*
X1786404Y-2588818D01*
X1794532Y-2580690D01*
X1802914Y-2564434D01*
X1802914Y-2547924D01*
X1794532Y-2531668D01*
X1778276Y-2523540D01*
X1762020Y-2531668D01*
X1753638Y-2547924D01*
X1753638Y-2564434D01*
X1762020Y-2588818D01*
X1778276Y-2613456D01*
X1819170Y-2670860D01*
X1835426Y-2687116D01*
X1851936Y-2695244D01*
X1868192Y-2695244D01*
X1876320Y-2687116D01*
X1876320Y-2678988D01*
X2012210Y-2523540D02*
G01*
X1930422Y-2638094D01*
X2053104Y-2638094D01*
X2012210Y-2523540D02*
G01*
X2012210Y-2695244D01*
X842289Y-2777540D02*
G01*
X842289Y-2949244D01*
X842289Y-2949244D02*
G01*
X940333Y-2949244D01*
X994435Y-2777540D02*
G01*
X994435Y-2949244D01*
X994435Y-2777540D02*
G01*
X1100861Y-2777540D01*
X994435Y-2859328D02*
G01*
X1059967Y-2859328D01*
X994435Y-2949244D02*
G01*
X1100861Y-2949244D01*
X1154709Y-2777540D02*
G01*
X1154709Y-2949244D01*
X1154709Y-2777540D02*
G01*
X1212113Y-2777540D01*
X1236751Y-2785668D01*
X1253007Y-2801924D01*
X1261135Y-2818434D01*
X1269263Y-2842818D01*
X1269263Y-2883712D01*
X1261135Y-2908350D01*
X1253007Y-2924860D01*
X1236751Y-2941116D01*
X1212113Y-2949244D01*
X1154709Y-2949244D01*
X1388897Y-2777540D02*
G01*
X1323365Y-2949244D01*
X1388897Y-2777540D02*
G01*
X1454175Y-2949244D01*
X1348003Y-2892094D02*
G01*
X1429791Y-2892094D01*
X1650517Y-2777540D02*
G01*
X1740687Y-2777540D01*
X1691411Y-2842818D01*
X1716049Y-2842818D01*
X1732559Y-2851200D01*
X1740687Y-2859328D01*
X1748815Y-2883712D01*
X1748815Y-2900222D01*
X1740687Y-2924860D01*
X1724177Y-2941116D01*
X1699793Y-2949244D01*
X1675155Y-2949244D01*
X1650517Y-2941116D01*
X1642389Y-2932988D01*
X1634261Y-2916478D01*
X1966493Y-2851200D02*
G01*
X1966493Y-2842818D01*
X1958365Y-2834690D01*
X1949983Y-2834690D01*
X1941855Y-2842818D01*
X1933727Y-2859328D01*
X1917471Y-2900222D01*
X1900961Y-2924860D01*
X1884705Y-2941116D01*
X1868195Y-2949244D01*
X1835429Y-2949244D01*
X1819173Y-2941116D01*
X1811045Y-2932988D01*
X1802917Y-2916478D01*
X1802917Y-2900222D01*
X1811045Y-2883712D01*
X1819173Y-2875584D01*
X1876323Y-2842818D01*
X1884705Y-2834690D01*
X1892833Y-2818434D01*
X1892833Y-2801924D01*
X1884705Y-2785668D01*
X1868195Y-2777540D01*
X1851939Y-2785668D01*
X1843811Y-2801924D01*
X1843811Y-2818434D01*
X1851939Y-2842818D01*
X1868195Y-2867456D01*
X1909089Y-2924860D01*
X1925599Y-2941116D01*
X1941855Y-2949244D01*
X1958365Y-2949244D01*
X1966493Y-2941116D01*
X1966493Y-2932988D01*
X2102383Y-2777540D02*
G01*
X2020341Y-2892094D01*
X2143277Y-2892094D01*
X2102383Y-2777540D02*
G01*
X2102383Y-2949244D01*
X842289Y-3031540D02*
G01*
X842289Y-3203244D01*
X842289Y-3203244D02*
G01*
X940333Y-3203244D01*
X994435Y-3031540D02*
G01*
X994435Y-3203244D01*
X994435Y-3031540D02*
G01*
X1100861Y-3031540D01*
X994435Y-3113328D02*
G01*
X1059967Y-3113328D01*
X994435Y-3203244D02*
G01*
X1100861Y-3203244D01*
X1154709Y-3031540D02*
G01*
X1154709Y-3203244D01*
X1154709Y-3031540D02*
G01*
X1212113Y-3031540D01*
X1236751Y-3039668D01*
X1253007Y-3055924D01*
X1261135Y-3072434D01*
X1269263Y-3096818D01*
X1269263Y-3137712D01*
X1261135Y-3162350D01*
X1253007Y-3178860D01*
X1236751Y-3195116D01*
X1212113Y-3203244D01*
X1154709Y-3203244D01*
X1323365Y-3031540D02*
G01*
X1323365Y-3203244D01*
X1437919Y-3031540D02*
G01*
X1323365Y-3146094D01*
X1364259Y-3105200D02*
G01*
X1437919Y-3203244D01*
X1626133Y-3072434D02*
G01*
X1626133Y-3064306D01*
X1634261Y-3047796D01*
X1642389Y-3039668D01*
X1658899Y-3031540D01*
X1691411Y-3031540D01*
X1707921Y-3039668D01*
X1716049Y-3047796D01*
X1724177Y-3064306D01*
X1724177Y-3080562D01*
X1716049Y-3096818D01*
X1699793Y-3121456D01*
X1618005Y-3203244D01*
X1732559Y-3203244D01*
X1949983Y-3105200D02*
G01*
X1949983Y-3096818D01*
X1941855Y-3088690D01*
X1933727Y-3088690D01*
X1925599Y-3096818D01*
X1917471Y-3113328D01*
X1900961Y-3154222D01*
X1884705Y-3178860D01*
X1868195Y-3195116D01*
X1851939Y-3203244D01*
X1819173Y-3203244D01*
X1802917Y-3195116D01*
X1794535Y-3186988D01*
X1786407Y-3170478D01*
X1786407Y-3154222D01*
X1794535Y-3137712D01*
X1802917Y-3129584D01*
X1860067Y-3096818D01*
X1868195Y-3088690D01*
X1876323Y-3072434D01*
X1876323Y-3055924D01*
X1868195Y-3039668D01*
X1851939Y-3031540D01*
X1835429Y-3039668D01*
X1827301Y-3055924D01*
X1827301Y-3072434D01*
X1835429Y-3096818D01*
X1851939Y-3121456D01*
X1892833Y-3178860D01*
X1909089Y-3195116D01*
X1925599Y-3203244D01*
X1941855Y-3203244D01*
X1949983Y-3195116D01*
X1949983Y-3186988D01*
X2020341Y-3031540D02*
G01*
X2110511Y-3031540D01*
X2061235Y-3096818D01*
X2085873Y-3096818D01*
X2102383Y-3105200D01*
X2110511Y-3113328D01*
X2118639Y-3137712D01*
X2118639Y-3154222D01*
X2110511Y-3178860D01*
X2094001Y-3195116D01*
X2069617Y-3203244D01*
X2044979Y-3203244D01*
X2020341Y-3195116D01*
X2012213Y-3186988D01*
X2004085Y-3170478D01*
X939825Y-3298240D02*
G01*
X939825Y-3469944D01*
X939825Y-3298240D02*
G01*
X1005357Y-3469944D01*
X1070635Y-3298240D02*
G01*
X1005357Y-3469944D01*
X1070635Y-3298240D02*
G01*
X1070635Y-3469944D01*
X1124737Y-3298240D02*
G01*
X1124737Y-3469944D01*
X1301521Y-3339134D02*
G01*
X1293139Y-3322624D01*
X1276883Y-3306368D01*
X1260627Y-3298240D01*
X1227861Y-3298240D01*
X1211351Y-3306368D01*
X1195095Y-3322624D01*
X1186967Y-3339134D01*
X1178585Y-3363518D01*
X1178585Y-3404412D01*
X1186967Y-3429050D01*
X1195095Y-3445560D01*
X1211351Y-3461816D01*
X1227861Y-3469944D01*
X1260627Y-3469944D01*
X1276883Y-3461816D01*
X1293139Y-3445560D01*
X1301521Y-3429050D01*
X1481353Y-3298240D02*
G01*
X1546885Y-3469944D01*
X1612417Y-3298240D02*
G01*
X1546885Y-3469944D01*
X1666265Y-3298240D02*
G01*
X1666265Y-3469944D01*
X1666265Y-3298240D02*
G01*
X1723669Y-3298240D01*
X1748053Y-3306368D01*
X1764563Y-3322624D01*
X1772691Y-3339134D01*
X1780819Y-3363518D01*
X1780819Y-3404412D01*
X1772691Y-3429050D01*
X1764563Y-3445560D01*
X1748053Y-3461816D01*
X1723669Y-3469944D01*
X1666265Y-3469944D01*
X1834921Y-3298240D02*
G01*
X1834921Y-3469944D01*
X1834921Y-3298240D02*
G01*
X1892071Y-3298240D01*
X1916709Y-3306368D01*
X1932965Y-3322624D01*
X1941347Y-3339134D01*
X1949475Y-3363518D01*
X1949475Y-3404412D01*
X1941347Y-3429050D01*
X1932965Y-3445560D01*
X1916709Y-3461816D01*
X1892071Y-3469944D01*
X1834921Y-3469944D01*
X1270025Y-3539540D02*
G01*
X1270025Y-3711244D01*
X1270025Y-3539540D02*
G01*
X1335557Y-3711244D01*
X1400835Y-3539540D02*
G01*
X1335557Y-3711244D01*
X1400835Y-3539540D02*
G01*
X1400835Y-3711244D01*
X1454937Y-3539540D02*
G01*
X1454937Y-3711244D01*
X1631721Y-3580434D02*
G01*
X1623339Y-3563924D01*
X1607083Y-3547668D01*
X1590827Y-3539540D01*
X1558061Y-3539540D01*
X1541551Y-3547668D01*
X1525295Y-3563924D01*
X1517167Y-3580434D01*
X1508785Y-3604818D01*
X1508785Y-3645712D01*
X1517167Y-3670350D01*
X1525295Y-3686860D01*
X1541551Y-3703116D01*
X1558061Y-3711244D01*
X1590827Y-3711244D01*
X1607083Y-3703116D01*
X1623339Y-3686860D01*
X1631721Y-3670350D01*
D11*
X469900Y1397000D02*
G01*
X469900Y1625600D01*
X-189534Y772617D02*
G01*
X-189534Y710234D01*
X-76200Y596900D01*
X165100Y596900D01*
X469900Y901700D01*
X469900Y1168400D01*
X215900Y1422400D01*
X215900Y1625600D01*
X-723900Y1460500D02*
G01*
X-825500Y1460500D01*
X-883894Y1402105D01*
X-883894Y1306931D01*
X-579094Y620979D02*
G01*
X-579094Y555447D01*
X-828268Y306273D01*
X-828268Y57099D01*
X-828268Y-250240D01*
X-1000988Y-422960D01*
X-1275816Y-697788D01*
X-3759200Y-698500D01*
X-3949700Y-927100D01*
X-3946626Y-2083866D01*
X-3045688Y-2984804D01*
X-3036290Y-2994202D01*
X-2821406Y-2994202D01*
X-2728442Y-2901238D01*
X-2728442Y-2814116D01*
X-2750794Y-2791764D01*
X-2750794Y-2729788D01*
D12*
X188015Y289991D02*
G01*
X-5Y289991D01*
X90073Y289991D02*
G01*
X88894Y127000D01*
X-2908305Y-2184400D02*
G01*
X-2910784Y-2729890D01*
X761994Y-622300D02*
G01*
X863594Y-723900D01*
X863594Y-1282700D01*
X723894Y-1422400D01*
X-2755905Y-1422400D01*
X188015Y-79982D02*
G01*
X451304Y-79982D01*
X1003320Y-632002D01*
X1003320Y-1435148D01*
X901720Y-1536748D01*
X-1054079Y-1536748D01*
X-1193779Y-1676448D01*
X-3111479Y-1676448D01*
X-3276574Y-1511348D01*
X914394Y-342900D02*
G01*
X602005Y-40182D01*
X563905Y-2082D01*
X187990Y-48D01*
X-1308105Y-1511300D02*
G01*
X-1244605Y-1447800D01*
X749294Y-1447800D01*
X914394Y-1282700D01*
X914394Y-736600D01*
X-2857505Y-1955800D02*
G01*
X-3111505Y-1955800D01*
X-3150793Y-1995096D01*
X-3150793Y-2729890D01*
X-114305Y-1993900D02*
G01*
X-139705Y-2019300D01*
X-1714505Y-2019300D01*
X634994Y-660400D02*
G01*
X126994Y-1168400D01*
X126994Y-1282700D01*
X188015Y-159994D02*
G01*
X302712Y-159994D01*
X761994Y-622300D01*
X-3276574Y-1600248D02*
G01*
X-3149579Y-1727248D01*
X-1181105Y-1727200D01*
X-1041405Y-1587500D01*
X-774705Y-1587500D01*
X602005Y518617D02*
G01*
X685794Y602414D01*
X1612894Y-317500D01*
X1612894Y-2019300D01*
X-3324987Y-2904083D02*
G01*
X-3329203Y-2908300D01*
X-3695697Y-2908300D01*
X-3324987Y-3224075D02*
G01*
X-3695697Y-3225800D01*
X-1003305Y-3263900D02*
G01*
X-1206505Y-3467100D01*
X-1930405Y-3467100D01*
X602005Y-141782D02*
G01*
X1066794Y-606579D01*
X1066794Y-1574800D01*
X901694Y-1739900D01*
X-838205Y-1739900D01*
X-2590805Y-2095500D02*
G01*
X-2590805Y-2729890D01*
X-927105Y-1689100D02*
G01*
X-1130305Y-1892300D01*
X-2667005Y-1892300D01*
X-2830802Y-2056102D01*
X-2830802Y-2729890D01*
X-990605Y-1638300D02*
G01*
X-1168405Y-1816100D01*
X-2387605Y-1816100D01*
X-2387605Y-1981200D02*
G01*
X-2510784Y-2104392D01*
X-2510784Y-2729890D01*
X188015Y200025D02*
G01*
X352419Y200025D01*
X685794Y533400D01*
X1511294Y-292100D01*
X1511294Y-2070100D01*
X1792780Y-2351582D01*
X2227605Y-2351582D01*
X-1231879Y-1562148D02*
G01*
X-1142979Y-1473248D01*
X762020Y-1473248D01*
X965220Y-1270048D01*
X965194Y-698500D01*
X602005Y-344982D01*
X-508005Y-266700D02*
G01*
X-508005Y-253992D01*
X-330205Y-76200D01*
X-330205Y228600D02*
G01*
X-558805Y0D01*
X-558805Y-762000D01*
X-1079505Y-1282700D01*
X-1079505Y-1384300D01*
X-2176602Y-3704081D02*
G01*
X-2172286Y-3708400D01*
X-1625605Y-3708400D01*
X-2176602Y-3624069D02*
G01*
X-2168479Y-3632200D01*
X-1701805Y-3632200D01*
X-2176602Y-3544087D02*
G01*
X-1816105Y-3543300D01*
X-2176602Y-3384090D02*
G01*
X-2169795Y-3390900D01*
X-1816105Y-3390900D01*
X-2176602Y-3464079D02*
G01*
X-2173577Y-3467100D01*
X-1930405Y-3467100D01*
X1130320Y-2438448D02*
G01*
X2227605Y-3535733D01*
X2227605Y-3621582D01*
X1193820Y-2374948D02*
G01*
X2186454Y-3367582D01*
X2227605Y-3367582D01*
X1269994Y-2298700D02*
G01*
X2084880Y-3113582D01*
X2227605Y-3113582D01*
X1346194Y-2222500D02*
G01*
X1983280Y-2859582D01*
X2227605Y-2859582D01*
X1435120Y-2133648D02*
G01*
X1907054Y-2605582D01*
X2227605Y-2605582D01*
X-3047979Y-3352848D02*
G01*
X-2984428Y-3289300D01*
X-2578105Y-3289300D01*
X-2971779Y-2108248D02*
G01*
X-2971805Y-2311400D01*
X-3009905Y-2349500D01*
X-1600205Y-3060700D02*
G01*
X-1603578Y-3064078D01*
X-2176602Y-3064078D01*
X-3157194Y721817D02*
G01*
X-3048005Y612620D01*
X-3048005Y-317500D01*
X-2903194Y467817D02*
G01*
X-2705079Y269697D01*
X-2705105Y50800D01*
X-2933679Y-190548D01*
X-2971779Y-228648D01*
X-2971779Y-368348D01*
X-3157194Y467817D02*
G01*
X-3352797Y272214D01*
X-3352797Y38094D01*
X-3086105Y-228600D01*
X-3086105Y-368300D01*
X-2903194Y721817D02*
G01*
X-3009905Y615114D01*
X-3009905Y-279400D01*
D11*
X-2176503Y-3304082D02*
G01*
X-2387605Y-3302000D01*
X-2176602Y-3224075D02*
G01*
X-2512867Y-3224075D01*
X-2578105Y-3289300D01*
X-2176602Y-3144085D02*
G01*
X-2182108Y-3149600D01*
X-2387605Y-3149600D01*
X-5Y-249986D02*
G01*
X-139705Y-389686D01*
X188015Y-249986D02*
G01*
X331721Y-393700D01*
X188015Y-199999D02*
G01*
X188015Y-249986D01*
X-5Y-199999D02*
G01*
X-5Y-249986D01*
X-5Y-159994D02*
G01*
X-5Y-199999D01*
X-5Y-119992D02*
G01*
X-5Y-159994D01*
D12*
X-5Y240004D02*
G01*
X-138402Y240004D01*
X-330205Y431800D01*
X-5Y200002D02*
G01*
X-187304Y200002D01*
X-330205Y342900D01*
X-5Y-79982D02*
G01*
X-156187Y-79982D01*
X-330205Y-254000D01*
X-5Y120012D02*
G01*
X81912Y120012D01*
X88894Y127000D01*
X-5Y80007D02*
G01*
X-181612Y80007D01*
X-330205Y228600D01*
X-5Y-40002D02*
G01*
X-192402Y-40002D01*
X-330205Y-177800D01*
X-5Y40005D02*
G01*
X-243202Y40005D01*
X-330205Y127000D01*
X-5Y0D02*
G01*
X-254005Y0D01*
X-330205Y-76200D01*
X188015Y240030D02*
G01*
X323423Y240030D01*
X602005Y518617D01*
X188015Y-119992D02*
G01*
X377014Y-119992D01*
X602005Y-344982D01*
X188015Y160022D02*
G01*
X370403Y160022D01*
X602005Y391617D01*
X188015Y120012D02*
G01*
X444705Y120012D01*
X602005Y277317D01*
X188015Y-40002D02*
G01*
X500232Y-40002D01*
X602005Y-141782D01*
X188015Y40005D02*
G01*
X191996Y36017D01*
X563905Y36017D01*
X602005Y74117D01*
X188015Y80007D02*
G01*
X193906Y74117D01*
X500405Y74117D01*
X602005Y175717D01*
D11*
X-725802Y175729D02*
G01*
X-629894Y79816D01*
X-629894Y-141782D01*
X-965786Y175729D02*
G01*
X-1137894Y3622D01*
X-1137894Y-2082D01*
X-1582394Y151178D02*
G01*
X-1760194Y-27482D01*
X-1248895Y1546809D02*
G01*
X-1468094Y1547317D01*
X-1629089Y1386321D01*
X-1629089Y1386321D02*
G01*
X-1796000Y1219405D01*
X-1796000Y1219405D02*
G01*
X-1916663Y1098755D01*
X-1916663Y772617D01*
X-1043884Y1306929D02*
G01*
X-1248895Y1511932D01*
X-1248895Y1546908D01*
X-540994Y-4034482D02*
G01*
X55905Y-3437582D01*
X55905Y-3102698D01*
X55905Y-3102698D02*
G01*
X55905Y-2814977D01*
X-540994Y-2218077D01*
X-3325091Y-3544112D02*
G01*
X-3119094Y-3545382D01*
X-3119094Y-3545382D02*
G01*
X-3042894Y-3469182D01*
D13*
X-2176602Y-2984096D02*
G01*
X-2468902Y-2984096D01*
X-2468902Y-2984096D02*
G01*
X-2585694Y-3100882D01*
X-723905Y1306929D02*
G01*
X-494385Y1077417D01*
X-477494Y1077417D01*
D11*
X148948Y772617D02*
G01*
X-518894Y1440459D01*
X-518894Y1546908D01*
X-1582394Y301856D02*
G01*
X-1578251Y305991D01*
X-1578251Y772617D01*
X-1112494Y771756D02*
G01*
X-1578251Y772617D01*
X-579094Y771756D02*
G01*
X-189537Y772617D01*
X-1248895Y1546908D02*
G01*
X-1058903Y1736905D01*
X-883894Y1736905D01*
X-518894Y1546908D02*
G01*
X-708886Y1736905D01*
X-883894Y1736905D01*
X-2903194Y213817D02*
G01*
X-2908305Y208714D01*
X-2908305Y25400D01*
D13*
X-3157194Y213817D02*
G01*
X-3174997Y196014D01*
X-3174997Y25400D01*
D11*
X-579094Y771756D02*
G01*
X-803912Y996566D01*
X-803912Y1306929D01*
X-1112494Y771756D02*
G01*
X-883894Y1000356D01*
X-883894Y1306929D01*
X-540994Y-3332175D02*
G01*
X-540994Y-3894477D01*
X-540994Y-2358082D02*
G01*
X-540994Y-2844185D01*
X-2430802Y-2729890D02*
G01*
X-2430802Y-2564996D01*
X-2369794Y-2503982D01*
X-881202Y-2503982D01*
X-540994Y-2844185D01*
X-2350795Y-2729890D02*
G01*
X-1143276Y-2729890D01*
X-540994Y-3332175D01*
X-1112494Y620979D02*
G01*
X-1112494Y555447D01*
X-863320Y306273D01*
X-863320Y57099D01*
X-863320Y-235508D01*
X-1036294Y-408482D01*
X-1290294Y-662482D01*
X-3771900Y-660400D01*
X-3987800Y-914400D01*
X-3981932Y-2098344D01*
X-3080994Y-2999282D01*
X-3050768Y-3029508D01*
X-2806928Y-3029508D01*
X-2693136Y-2915716D01*
X-2693136Y-2814116D01*
X-2670784Y-2791764D01*
X-2670784Y-2729788D01*
D14*
X-2238400Y-3704081D02*
G01*
X-2114804Y-3704081D01*
X-2238400Y-3624071D02*
G01*
X-2114804Y-3624071D01*
X-2238400Y-3544087D02*
G01*
X-2114804Y-3544087D01*
X-2238400Y-3464077D02*
G01*
X-2114804Y-3464077D01*
X-2238400Y-3384092D02*
G01*
X-2114804Y-3384092D01*
X-2238400Y-3304082D02*
G01*
X-2114804Y-3304082D01*
X-2238400Y-3224072D02*
G01*
X-2114804Y-3224072D01*
X-2238400Y-3144088D02*
G01*
X-2114804Y-3144088D01*
X-2238400Y-3064078D02*
G01*
X-2114804Y-3064078D01*
X-2238400Y-2984093D02*
G01*
X-2114804Y-2984093D01*
X-2238400Y-2904083D02*
G01*
X-2114804Y-2904083D01*
X-2350795Y-2791688D02*
G01*
X-2350795Y-2668092D01*
X-2430805Y-2791688D02*
G01*
X-2430805Y-2668092D01*
X-2510790Y-2791688D02*
G01*
X-2510790Y-2668092D01*
X-2590800Y-2791688D02*
G01*
X-2590800Y-2668092D01*
X-2670784Y-2791688D02*
G01*
X-2670784Y-2668092D01*
X-2750794Y-2791688D02*
G01*
X-2750794Y-2668092D01*
X-2830804Y-2791688D02*
G01*
X-2830804Y-2668092D01*
X-2910789Y-2791688D02*
G01*
X-2910789Y-2668092D01*
X-2990799Y-2791688D02*
G01*
X-2990799Y-2668092D01*
X-3070783Y-2791688D02*
G01*
X-3070783Y-2668092D01*
X-3150793Y-2791691D02*
G01*
X-3150793Y-2668092D01*
X-3386785Y-2904083D02*
G01*
X-3263186Y-2904083D01*
X-3386785Y-2984093D02*
G01*
X-3263186Y-2984093D01*
X-3386785Y-3064078D02*
G01*
X-3263186Y-3064078D01*
X-3386785Y-3144088D02*
G01*
X-3263186Y-3144088D01*
X-3386785Y-3224072D02*
G01*
X-3263186Y-3224072D01*
X-3386785Y-3304082D02*
G01*
X-3263186Y-3304082D01*
X-3386785Y-3384092D02*
G01*
X-3263186Y-3384092D01*
X-3386785Y-3464077D02*
G01*
X-3263186Y-3464077D01*
X-3386785Y-3544087D02*
G01*
X-3263186Y-3544087D01*
X-3386785Y-3624071D02*
G01*
X-3263186Y-3624071D01*
X-3386785Y-3704081D02*
G01*
X-3263186Y-3704081D01*
X-3150793Y-3940075D02*
G01*
X-3150793Y-3816476D01*
X-3070783Y-3940075D02*
G01*
X-3070783Y-3816476D01*
X-2990799Y-3940075D02*
G01*
X-2990799Y-3816476D01*
X-2910789Y-3940075D02*
G01*
X-2910789Y-3816476D01*
X-2830804Y-3940075D02*
G01*
X-2830804Y-3816476D01*
X-2750794Y-3940075D02*
G01*
X-2750794Y-3816476D01*
X-2670784Y-3940075D02*
G01*
X-2670784Y-3816476D01*
X-2590800Y-3940075D02*
G01*
X-2590800Y-3816476D01*
X-2510790Y-3940075D02*
G01*
X-2510790Y-3816476D01*
X-2430805Y-3940075D02*
G01*
X-2430805Y-3816476D01*
X-2350795Y-3940075D02*
G01*
X-2350795Y-3816476D01*
G36*
X-350202Y134510D02*
G01*
X-350202Y119509D01*
X-310202Y119509D01*
X-310202Y134510D01*
G37*
G36*
X208008Y-7495D02*
G01*
X208008Y7505D01*
X168008Y7505D01*
X168008Y-7495D01*
G37*
G36*
X208008Y270004D02*
G01*
X208008Y310004D01*
X168008Y310004D01*
X168008Y270004D01*
G37*
G36*
X208008Y32504D02*
G01*
X208008Y47505D01*
X168008Y47505D01*
X168008Y32504D01*
G37*
G36*
X168008Y-192493D02*
G01*
X168008Y-207495D01*
X208008Y-207495D01*
X208008Y-192493D01*
G37*
G36*
X168008Y-112494D02*
G01*
X168008Y-127495D01*
X208008Y-127495D01*
X208008Y-112494D01*
G37*
G36*
X168008Y-152493D02*
G01*
X168008Y-167495D01*
X208008Y-167495D01*
X208008Y-152493D01*
G37*
G36*
X168008Y-72494D02*
G01*
X168008Y-87495D01*
X208008Y-87495D01*
X208008Y-72494D01*
G37*
G36*
X168008Y-32494D02*
G01*
X168008Y-47495D01*
X208008Y-47495D01*
X208008Y-32494D01*
G37*
G36*
X-19992Y310004D02*
G01*
X-19992Y270004D01*
X20007Y270004D01*
X20007Y310004D01*
G37*
G36*
X20007Y-7495D02*
G01*
X20007Y7505D01*
X-19992Y7505D01*
X-19992Y-7495D01*
G37*
G36*
X20007Y32504D02*
G01*
X20007Y47505D01*
X-19992Y47505D01*
X-19992Y32504D01*
G37*
G36*
X20007Y112504D02*
G01*
X20007Y127505D01*
X-19992Y127505D01*
X-19992Y112504D01*
G37*
G36*
X20007Y72504D02*
G01*
X20007Y87505D01*
X-19992Y87505D01*
X-19992Y72504D01*
G37*
G36*
X20007Y232503D02*
G01*
X20007Y247505D01*
X-19992Y247505D01*
X-19992Y232503D01*
G37*
G36*
X20007Y152504D02*
G01*
X20007Y167505D01*
X-19992Y167505D01*
X-19992Y152504D01*
G37*
G36*
X-19992Y-152493D02*
G01*
X-19992Y-167495D01*
X20007Y-167495D01*
X20007Y-152493D01*
G37*
G36*
X-19992Y-192493D02*
G01*
X-19992Y-207495D01*
X20007Y-207495D01*
X20007Y-192493D01*
G37*
G36*
X-19992Y-112494D02*
G01*
X-19992Y-127495D01*
X20007Y-127495D01*
X20007Y-112494D01*
G37*
G36*
X-19992Y-72494D02*
G01*
X-19992Y-87495D01*
X20007Y-87495D01*
X20007Y-72494D01*
G37*
G36*
X-19992Y-32494D02*
G01*
X-19992Y-47495D01*
X20007Y-47495D01*
X20007Y-32494D01*
G37*
G36*
X208008Y-269989D02*
G01*
X208008Y-229989D01*
X168008Y-229989D01*
X168008Y-269989D01*
G37*
G36*
X20007Y192509D02*
G01*
X20007Y207510D01*
X-19992Y207510D01*
X-19992Y192509D01*
G37*
G36*
X168008Y87520D02*
G01*
X168008Y72519D01*
X208008Y72519D01*
X208008Y87520D01*
G37*
G36*
X208008Y112519D02*
G01*
X208008Y127520D01*
X168008Y127520D01*
X168008Y112519D01*
G37*
G36*
X208008Y152519D02*
G01*
X208008Y167520D01*
X168008Y167520D01*
X168008Y152519D01*
G37*
G36*
X168008Y207535D02*
G01*
X168008Y192534D01*
X208008Y192534D01*
X208008Y207535D01*
G37*
G36*
X208008Y232534D02*
G01*
X208008Y247535D01*
X168008Y247535D01*
X168008Y232534D01*
G37*
G36*
X19997Y-269984D02*
G01*
X19997Y-229984D01*
X-20002Y-229984D01*
X-20002Y-269984D01*
G37*
G36*
X-1040795Y243662D02*
G01*
X-890793Y243662D01*
X-890793Y107772D01*
X-1040795Y107772D01*
G37*
G36*
X-800795Y243662D02*
G01*
X-650796Y243662D01*
X-650796Y107772D01*
X-800795Y107772D01*
G37*
D21*
G01*
X-540994Y-2218080D03*
G01*
X-540994Y-2358085D03*
G01*
X-540994Y-4034485D03*
G01*
X-540994Y-3894480D03*
G36*
X101445Y830117D02*
G01*
X196446Y830117D01*
X196446Y715116D01*
X101445Y715116D01*
G37*
G36*
X-237035Y830117D02*
G01*
X-142034Y830117D01*
X-142034Y715116D01*
X-237035Y715116D01*
G37*
D22*
G01*
X-1916734Y772617D03*
G01*
X-1578254Y772617D03*
G36*
X-535894Y731418D02*
G01*
X-622294Y731418D01*
X-622294Y812065D01*
X-535894Y812065D01*
G37*
D23*
G01*
X-579094Y621080D03*
G36*
X-1155694Y661415D02*
G01*
X-1069294Y661415D01*
X-1069294Y580768D01*
X-1155694Y580768D01*
G37*
G01*
X-1112494Y771753D03*
G36*
X-1539194Y261518D02*
G01*
X-1625594Y261518D01*
X-1625594Y342165D01*
X-1539194Y342165D01*
G37*
G01*
X-1582394Y151180D03*
D24*
G01*
X-723900Y1306931D03*
G01*
X-803909Y1306931D03*
G01*
X-883894Y1306931D03*
G01*
X-963904Y1306931D03*
G01*
X-1043889Y1306931D03*
G36*
X-588896Y1916920D02*
G01*
X-588896Y1836920D01*
X-733894Y1836920D01*
X-733894Y1786920D01*
X-603895Y1786920D01*
X-603895Y1706920D01*
X-733894Y1706920D01*
X-733894Y1556920D01*
X-1033894Y1556920D01*
X-1033894Y1706920D01*
X-1163894Y1706920D01*
X-1163894Y1786920D01*
X-1033894Y1786920D01*
X-1033894Y1836920D01*
X-1178895Y1836920D01*
X-1178895Y1916920D01*
X-588896Y1916920D01*
G37*
G36*
X802640Y1704339D02*
G01*
X645159Y1704339D01*
X645159Y1546860D01*
X802640Y1546860D01*
G37*
D26*
G01*
X469900Y1625600D03*
G01*
X215900Y1625600D03*
G01*
X-38100Y1625600D03*
D27*
G01*
X-540994Y-2844190D03*
G01*
X-540994Y-3332175D03*
D26*
G01*
X-2903194Y213817D03*
G01*
X-3157194Y213817D03*
G01*
X-2903194Y467817D03*
G01*
X-3157194Y467817D03*
G01*
X-2903194Y721817D03*
D25*
G01*
X-3157194Y721817D03*
D26*
G01*
X2227605Y-2351582D03*
G01*
X2227605Y-2605582D03*
G01*
X2227605Y-2859582D03*
G01*
X2227605Y-3113582D03*
G01*
X2227605Y-3367582D03*
D25*
G01*
X2227605Y-3621582D03*
D16*
G01*
X-3175000Y25400D03*
G01*
X-2908300Y25400D03*
G01*
X-494385Y1077417D03*
G01*
X-2585694Y-3100882D03*
G01*
X-2468905Y-2984093D03*
G01*
X-3042894Y-3469182D03*
G01*
X-3119094Y-3545382D03*
G01*
X55905Y-3102711D03*
G01*
X-1796008Y1219403D03*
G01*
X-1629079Y1386331D03*
G01*
X-1760194Y-27482D03*
G01*
X-1137894Y3606D03*
G01*
X-629894Y-141782D03*
D17*
G01*
X602005Y74117D03*
G01*
X602005Y175717D03*
G01*
X602005Y-141782D03*
G01*
X602005Y277317D03*
G01*
X602005Y391617D03*
G01*
X-330200Y127000D03*
G01*
X-330200Y228600D03*
G01*
X-330200Y-177800D03*
G01*
X88900Y127000D03*
G01*
X-330200Y-254000D03*
G01*
X-330200Y431800D03*
G01*
X-330200Y342900D03*
D16*
G01*
X-139674Y-389686D03*
G01*
X331749Y-393750D03*
G01*
X-2387600Y-3149600D03*
G01*
X-2387600Y-3302000D03*
G01*
X-2578100Y-3289300D03*
D17*
G01*
X-2971774Y-368350D03*
G01*
X-3009900Y-279400D03*
G01*
X-3086074Y-368350D03*
G01*
X-3048000Y-317500D03*
G01*
X-1600200Y-3060700D03*
G01*
X-2971774Y-2108250D03*
G01*
X-3009874Y-2349550D03*
G01*
X-3047974Y-3352850D03*
G01*
X1435125Y-2133650D03*
G01*
X1346200Y-2222500D03*
G01*
X1270000Y-2298700D03*
G01*
X1193825Y-2374950D03*
G01*
X1130325Y-2438450D03*
G01*
X-1816100Y-3390900D03*
G01*
X-1816074Y-3543350D03*
G01*
X-1701800Y-3632200D03*
G01*
X-1625600Y-3708400D03*
G01*
X-1079500Y-1384300D03*
G01*
X-508000Y-266700D03*
G01*
X-1231900Y-1562100D03*
G01*
X-2387600Y-1981200D03*
G01*
X-990600Y-1638300D03*
G01*
X-927100Y-1689100D03*
G01*
X-2387600Y-1816100D03*
G01*
X-2590800Y-2095500D03*
G01*
X-838174Y-1739950D03*
G01*
X-1003300Y-3263900D03*
G01*
X-3695674Y-3225850D03*
G01*
X-3695700Y-2908300D03*
G01*
X-3276600Y-1511300D03*
G01*
X-3276600Y-1600200D03*
G01*
X1612925Y-2019350D03*
G01*
X-774700Y-1587500D03*
G01*
X635000Y-660400D03*
G01*
X127000Y-1282700D03*
G01*
X-114300Y-1993900D03*
G01*
X-1714500Y-2019300D03*
G01*
X-2857500Y-1955800D03*
G01*
X-1308100Y-1511300D03*
G01*
X914400Y-736600D03*
G01*
X914400Y-342900D03*
G01*
X-2755900Y-1422400D03*
G01*
X-2908300Y-2184400D03*
D16*
G01*
X469900Y1397000D03*
G01*
X-723900Y1460500D03*
D28*
X-518896Y1416911D02*
G01*
X-518896Y1676910D01*
X-1248892Y1416911D02*
G01*
X-1248892Y1676910D01*
M02*
