G04 Layer: InnerLayer2*
G04 EasyEDA v6.5.3, 2022-04-03 17:45:16*
G04 78107e5fb92a4dff92b191d725c0db84,37927428d3cb42c68971fe41ce46a6a6,10*
G04 Gerber Generator version 0.2*
G04 Scale: 100 percent, Rotated: No, Reflected: No *
G04 Dimensions in millimeters *
G04 leading zeros omitted , absolute positions ,4 integer and 5 decimal *
%FSLAX45Y45*%
%MOMM*%

%ADD11C,0.2000*%
%ADD12C,0.1000*%
%ADD16C,0.6100*%
%ADD17C,0.4000*%
%ADD25R,1.5748X1.5748*%
%ADD26C,1.5748*%
%ADD27C,1.8000*%
%ADD28C,1.4000*%

%LPD*%
D11*
X469900Y1397000D02*
G01*
X355594Y1397000D01*
X88894Y1130300D01*
X-393705Y1130300D01*
X-723905Y1460500D01*
D12*
X-2755905Y-1422400D02*
G01*
X-2908305Y-1574800D01*
X-2908305Y-2184400D01*
X914394Y-736600D02*
G01*
X914394Y-342900D01*
X-1816105Y-3390900D02*
G01*
X-1587505Y-3390900D01*
X-1308105Y-3111500D01*
X-1308105Y-1511300D01*
X-1714505Y-2019300D02*
G01*
X-1866905Y-2171700D01*
X-2641605Y-2171700D01*
X-2857505Y-1955800D01*
X126994Y-1282700D02*
G01*
X126994Y-1854200D01*
X-12705Y-1993900D01*
X-114305Y-1993900D01*
X602005Y74117D02*
G01*
X761994Y-85879D01*
X761994Y-533400D01*
X634994Y-660400D01*
X1612920Y-2019348D02*
G01*
X1612920Y-2120948D01*
X1193820Y-2540048D01*
X194477Y-2540048D01*
X-482605Y-1862980D01*
X-482605Y-1689100D01*
X-584205Y-1587500D01*
X-774705Y-1587500D01*
X-3695674Y-3225848D02*
G01*
X-3848097Y-3073422D01*
X-3848097Y-1752600D01*
X-3606797Y-1511300D01*
X-3276597Y-1511300D01*
X-3695697Y-2908300D02*
G01*
X-3771897Y-2832100D01*
X-3771897Y-1752600D01*
X-3619497Y-1600200D01*
X-3276597Y-1600200D01*
X-838179Y-1739948D02*
G01*
X-1003305Y-1905073D01*
X-1003305Y-3263900D01*
X-2387605Y-1816100D02*
G01*
X-2590805Y-2019300D01*
X-2590805Y-2095500D01*
X-330205Y-254000D02*
G01*
X-406405Y-330200D01*
X-406405Y-838200D01*
X-927105Y-1358900D01*
X-927105Y-1689100D01*
X-330205Y-177800D02*
G01*
X-457205Y-304800D01*
X-457205Y-800100D01*
X-990605Y-1333500D01*
X-990605Y-1638300D01*
X-330205Y127000D02*
G01*
X-330205Y0D01*
X-609605Y-279400D01*
X-609605Y-609600D01*
X-1981205Y-1981200D01*
X-2387605Y-1981200D01*
X-1816079Y-3543348D02*
G01*
X-1587479Y-3543348D01*
X-1231879Y-3187748D01*
X-1231905Y-1562100D01*
X-1701805Y-3632200D02*
G01*
X-1600205Y-3632200D01*
X-1155705Y-3187700D01*
X-1155705Y-1244600D01*
X-508005Y-596892D01*
X-508005Y-266700D01*
X-1625605Y-3708400D02*
G01*
X-1574805Y-3708400D01*
X-1079505Y-3213100D01*
X-1079505Y-1384300D01*
X-330179Y342851D02*
G01*
X88920Y-76248D01*
X88920Y-469948D01*
X596920Y-977948D01*
X1016020Y-977948D01*
X1130294Y-1092248D01*
X1130294Y-2438400D01*
X-330179Y431751D02*
G01*
X139720Y-38148D01*
X139720Y-457248D01*
X609620Y-927148D01*
X1054120Y-927148D01*
X1193794Y-1066848D01*
X1193794Y-2374900D01*
X602005Y175717D02*
G01*
X1269994Y-492279D01*
X1269994Y-2298700D01*
X602005Y277317D02*
G01*
X1346194Y-466879D01*
X1346194Y-2222500D01*
X602005Y391617D02*
G01*
X1435094Y-441479D01*
X1435094Y-2133600D01*
X-3086105Y-368348D02*
G01*
X-3086105Y-3314700D01*
X-3048005Y-3352800D01*
X-3048005Y-317500D02*
G01*
X-3048005Y-3251200D01*
X-2921005Y-3378200D01*
X-2476505Y-3378200D01*
X-2400305Y-3302000D01*
X-2387605Y-3302000D01*
X-3009879Y-2349548D02*
G01*
X-3009905Y-3086100D01*
X-2921005Y-3175000D01*
X-2413005Y-3175000D01*
X-2387605Y-3149600D01*
X-3009905Y-279400D02*
G01*
X-3009905Y-2209800D01*
X-2819405Y-2400300D01*
X-1879605Y-2400300D01*
X-1524005Y-2755900D01*
X-1524005Y-2984500D01*
X-1600205Y-3060700D01*
X-2971779Y-368348D02*
G01*
X-2971779Y-2108248D01*
G36*
X802640Y1704339D02*
G01*
X645159Y1704339D01*
X645159Y1546860D01*
X802640Y1546860D01*
G37*
D26*
G01*
X469900Y1625600D03*
G01*
X215900Y1625600D03*
G01*
X-38100Y1625600D03*
D27*
G01*
X-540994Y-2844190D03*
G01*
X-540994Y-3332175D03*
D26*
G01*
X-2903194Y213817D03*
G01*
X-3157194Y213817D03*
G01*
X-2903194Y467817D03*
G01*
X-3157194Y467817D03*
G01*
X-2903194Y721817D03*
D25*
G01*
X-3157194Y721817D03*
D26*
G01*
X2227605Y-2351582D03*
G01*
X2227605Y-2605582D03*
G01*
X2227605Y-2859582D03*
G01*
X2227605Y-3113582D03*
G01*
X2227605Y-3367582D03*
D25*
G01*
X2227605Y-3621582D03*
D16*
G01*
X-3175000Y25400D03*
G01*
X-2908300Y25400D03*
G01*
X-494385Y1077417D03*
G01*
X-2585694Y-3100882D03*
G01*
X-2468905Y-2984093D03*
G01*
X-3042894Y-3469182D03*
G01*
X-3119094Y-3545382D03*
G01*
X55905Y-3102711D03*
G01*
X-1796008Y1219403D03*
G01*
X-1629079Y1386331D03*
G01*
X-1760194Y-27482D03*
G01*
X-1137894Y3606D03*
G01*
X-629894Y-141782D03*
D17*
G01*
X602005Y74117D03*
G01*
X602005Y175717D03*
G01*
X602005Y-141782D03*
G01*
X602005Y277317D03*
G01*
X602005Y391617D03*
G01*
X-330200Y127000D03*
G01*
X-330200Y228600D03*
G01*
X-330200Y-177800D03*
G01*
X88900Y127000D03*
G01*
X-330200Y-254000D03*
G01*
X-330200Y431800D03*
G01*
X-330200Y342900D03*
D16*
G01*
X-139674Y-389686D03*
G01*
X331749Y-393750D03*
G01*
X-2387600Y-3149600D03*
G01*
X-2387600Y-3302000D03*
G01*
X-2578100Y-3289300D03*
D17*
G01*
X-2971774Y-368350D03*
G01*
X-3009900Y-279400D03*
G01*
X-3086074Y-368350D03*
G01*
X-3048000Y-317500D03*
G01*
X-1600200Y-3060700D03*
G01*
X-2971774Y-2108250D03*
G01*
X-3009874Y-2349550D03*
G01*
X-3047974Y-3352850D03*
G01*
X1435125Y-2133650D03*
G01*
X1346200Y-2222500D03*
G01*
X1270000Y-2298700D03*
G01*
X1193825Y-2374950D03*
G01*
X1130325Y-2438450D03*
G01*
X-1816100Y-3390900D03*
G01*
X-1816074Y-3543350D03*
G01*
X-1701800Y-3632200D03*
G01*
X-1625600Y-3708400D03*
G01*
X-1079500Y-1384300D03*
G01*
X-508000Y-266700D03*
G01*
X-1231900Y-1562100D03*
G01*
X-2387600Y-1981200D03*
G01*
X-990600Y-1638300D03*
G01*
X-927100Y-1689100D03*
G01*
X-2387600Y-1816100D03*
G01*
X-2590800Y-2095500D03*
G01*
X-838174Y-1739950D03*
G01*
X-1003300Y-3263900D03*
G01*
X-3695674Y-3225850D03*
G01*
X-3695700Y-2908300D03*
G01*
X-3276600Y-1511300D03*
G01*
X-3276600Y-1600200D03*
G01*
X1612925Y-2019350D03*
G01*
X-774700Y-1587500D03*
G01*
X635000Y-660400D03*
G01*
X127000Y-1282700D03*
G01*
X-114300Y-1993900D03*
G01*
X-1714500Y-2019300D03*
G01*
X-2857500Y-1955800D03*
G01*
X-1308100Y-1511300D03*
G01*
X914400Y-736600D03*
G01*
X914400Y-342900D03*
G01*
X-2755900Y-1422400D03*
G01*
X-2908300Y-2184400D03*
D16*
G01*
X469900Y1397000D03*
G01*
X-723900Y1460500D03*
D28*
X-518896Y1416911D02*
G01*
X-518896Y1676910D01*
X-1248892Y1416911D02*
G01*
X-1248892Y1676910D01*
M02*
