G04 Layer: BottomLayer*
G04 EasyEDA v6.5.3, 2022-04-03 17:45:16*
G04 78107e5fb92a4dff92b191d725c0db84,37927428d3cb42c68971fe41ce46a6a6,10*
G04 Gerber Generator version 0.2*
G04 Scale: 100 percent, Rotated: No, Reflected: No *
G04 Dimensions in millimeters *
G04 leading zeros omitted , absolute positions ,4 integer and 5 decimal *
%FSLAX45Y45*%
%MOMM*%

%ADD16C,0.6100*%
%ADD17C,0.4000*%
%ADD25R,1.5748X1.5748*%
%ADD26C,1.5748*%
%ADD27C,1.8000*%
%ADD28C,1.4000*%

%LPD*%
G36*
X-3299917Y-4883099D02*
G01*
X-3346145Y-4882083D01*
X-3391611Y-4879187D01*
X-3436975Y-4874361D01*
X-3481984Y-4867554D01*
X-3526840Y-4858918D01*
X-3571138Y-4848352D01*
X-3614978Y-4835906D01*
X-3658311Y-4821631D01*
X-3700932Y-4805527D01*
X-3742893Y-4787646D01*
X-3784041Y-4767935D01*
X-3824325Y-4746548D01*
X-3863594Y-4723485D01*
X-3901948Y-4698746D01*
X-3939184Y-4672431D01*
X-3975252Y-4644542D01*
X-4010050Y-4615129D01*
X-4043679Y-4584293D01*
X-4075887Y-4552035D01*
X-4106722Y-4518456D01*
X-4136085Y-4483557D01*
X-4163974Y-4447489D01*
X-4190288Y-4410252D01*
X-4215028Y-4371949D01*
X-4238091Y-4332630D01*
X-4259478Y-4292346D01*
X-4279138Y-4251198D01*
X-4296968Y-4209237D01*
X-4313072Y-4166615D01*
X-4327398Y-4123283D01*
X-4339742Y-4079443D01*
X-4350359Y-4035044D01*
X-4358944Y-3990289D01*
X-4365701Y-3945178D01*
X-4370476Y-3899865D01*
X-4373422Y-3854348D01*
X-4374388Y-3808628D01*
X-4374388Y890625D01*
X-4373422Y936802D01*
X-4370476Y982319D01*
X-4365599Y1027633D01*
X-4358843Y1072743D01*
X-4350207Y1117498D01*
X-4339691Y1161846D01*
X-4327194Y1205738D01*
X-4312920Y1249019D01*
X-4296816Y1291691D01*
X-4278985Y1333652D01*
X-4259224Y1374749D01*
X-4237837Y1415034D01*
X-4214774Y1454353D01*
X-4190085Y1492656D01*
X-4163771Y1529892D01*
X-4135882Y1565960D01*
X-4106418Y1600809D01*
X-4075582Y1634388D01*
X-4043324Y1666595D01*
X-4009745Y1697431D01*
X-3974846Y1726844D01*
X-3938778Y1754682D01*
X-3901592Y1781048D01*
X-3863238Y1805736D01*
X-3823919Y1828800D01*
X-3783685Y1850186D01*
X-3742486Y1869846D01*
X-3700526Y1887728D01*
X-3657904Y1903831D01*
X-3614572Y1918055D01*
X-3570732Y1930501D01*
X-3526383Y1941017D01*
X-3481578Y1949704D01*
X-3436518Y1956409D01*
X-3391154Y1961235D01*
X-3345687Y1964131D01*
X-3299917Y1965096D01*
X1399336Y1965096D01*
X1445463Y1964131D01*
X1491030Y1961235D01*
X1536395Y1956358D01*
X1581454Y1949602D01*
X1626209Y1940966D01*
X1670557Y1930400D01*
X1714449Y1917954D01*
X1757730Y1903679D01*
X1800402Y1887575D01*
X1842363Y1869643D01*
X1883410Y1849983D01*
X1923745Y1828596D01*
X1963013Y1805533D01*
X2001316Y1780793D01*
X2038604Y1754428D01*
X2074672Y1726539D01*
X2109520Y1697177D01*
X2143048Y1666290D01*
X2175256Y1634083D01*
X2206142Y1600454D01*
X2235504Y1565605D01*
X2263394Y1529537D01*
X2289708Y1492300D01*
X2314397Y1453997D01*
X2337511Y1414627D01*
X2358847Y1374394D01*
X2378557Y1333246D01*
X2396388Y1291285D01*
X2412492Y1248613D01*
X2426766Y1205331D01*
X2439162Y1161440D01*
X2449677Y1117092D01*
X2458415Y1072337D01*
X2465120Y1027226D01*
X2469896Y981913D01*
X2472842Y936396D01*
X2473807Y890625D01*
X2473807Y-3808628D01*
X2472842Y-3854805D01*
X2469896Y-3900271D01*
X2465019Y-3945636D01*
X2458313Y-3990695D01*
X2449677Y-4035501D01*
X2439111Y-4079849D01*
X2426665Y-4123690D01*
X2412390Y-4167022D01*
X2396286Y-4209643D01*
X2378354Y-4251604D01*
X2358644Y-4292752D01*
X2337308Y-4332986D01*
X2314194Y-4372305D01*
X2289454Y-4410608D01*
X2263140Y-4447844D01*
X2235250Y-4483912D01*
X2205888Y-4518761D01*
X2174951Y-4552340D01*
X2142744Y-4584547D01*
X2109165Y-4615383D01*
X2074265Y-4644796D01*
X2038197Y-4672685D01*
X2001012Y-4699000D01*
X1962657Y-4723688D01*
X1923338Y-4746752D01*
X1883054Y-4768138D01*
X1841906Y-4787798D01*
X1799945Y-4805680D01*
X1757324Y-4821783D01*
X1713992Y-4836058D01*
X1670100Y-4848453D01*
X1625752Y-4859020D01*
X1580997Y-4867656D01*
X1535938Y-4874412D01*
X1490624Y-4879187D01*
X1445107Y-4882083D01*
X1399336Y-4883099D01*
G37*

%LPC*%
G36*
X1498650Y-4039108D02*
G01*
X1513992Y-4038142D01*
X1529130Y-4035399D01*
X1543812Y-4030827D01*
X1557832Y-4024477D01*
X1570990Y-4016501D01*
X1583131Y-4007002D01*
X1594002Y-3996131D01*
X1603552Y-3984040D01*
X1611477Y-3970832D01*
X1617827Y-3956812D01*
X1622348Y-3942130D01*
X1625193Y-3926992D01*
X1626107Y-3911600D01*
X1625193Y-3896207D01*
X1622348Y-3881069D01*
X1617827Y-3866387D01*
X1611477Y-3852367D01*
X1603552Y-3839159D01*
X1594002Y-3827068D01*
X1583131Y-3816197D01*
X1570990Y-3806698D01*
X1557832Y-3798722D01*
X1543812Y-3792372D01*
X1529130Y-3787800D01*
X1513992Y-3785057D01*
X1498650Y-3784092D01*
X1483258Y-3785057D01*
X1468069Y-3787800D01*
X1453438Y-3792372D01*
X1439367Y-3798722D01*
X1426210Y-3806698D01*
X1414068Y-3816197D01*
X1403197Y-3827068D01*
X1393647Y-3839159D01*
X1385722Y-3852367D01*
X1379372Y-3866387D01*
X1374851Y-3881069D01*
X1372006Y-3896207D01*
X1371092Y-3911600D01*
X1372006Y-3926992D01*
X1374851Y-3942130D01*
X1379372Y-3956812D01*
X1385722Y-3970832D01*
X1393647Y-3984040D01*
X1403197Y-3996131D01*
X1414068Y-4007002D01*
X1426210Y-4016501D01*
X1439367Y-4024477D01*
X1453438Y-4030827D01*
X1468069Y-4035399D01*
X1483258Y-4038142D01*
G37*
G36*
X-3403549Y-4039108D02*
G01*
X-3388207Y-4038142D01*
X-3373069Y-4035399D01*
X-3358387Y-4030827D01*
X-3344316Y-4024477D01*
X-3331159Y-4016501D01*
X-3319018Y-4007002D01*
X-3308146Y-3996131D01*
X-3298698Y-3984040D01*
X-3290671Y-3970832D01*
X-3284372Y-3956812D01*
X-3279800Y-3942130D01*
X-3277006Y-3926992D01*
X-3276092Y-3911600D01*
X-3277006Y-3896207D01*
X-3279800Y-3881069D01*
X-3284372Y-3866387D01*
X-3290671Y-3852367D01*
X-3298698Y-3839159D01*
X-3308146Y-3827068D01*
X-3319018Y-3816197D01*
X-3331159Y-3806698D01*
X-3344316Y-3798722D01*
X-3358387Y-3792372D01*
X-3373069Y-3787800D01*
X-3388207Y-3785057D01*
X-3403549Y-3784092D01*
X-3418992Y-3785057D01*
X-3434130Y-3787800D01*
X-3448761Y-3792372D01*
X-3462883Y-3798722D01*
X-3476040Y-3806698D01*
X-3488182Y-3816197D01*
X-3499053Y-3827068D01*
X-3508501Y-3839159D01*
X-3516528Y-3852367D01*
X-3522776Y-3866387D01*
X-3527399Y-3881069D01*
X-3530193Y-3896207D01*
X-3531057Y-3911600D01*
X-3530193Y-3926992D01*
X-3527399Y-3942130D01*
X-3522776Y-3956812D01*
X-3516528Y-3970832D01*
X-3508501Y-3984040D01*
X-3499053Y-3996131D01*
X-3488182Y-4007002D01*
X-3476040Y-4016501D01*
X-3462883Y-4024477D01*
X-3448761Y-4030827D01*
X-3434130Y-4035399D01*
X-3418992Y-4038142D01*
G37*
G36*
X-1623415Y-3754221D02*
G01*
X-1614779Y-3752951D01*
X-1606499Y-3750106D01*
X-1599031Y-3745737D01*
X-1592427Y-3740048D01*
X-1586992Y-3733190D01*
X-1583029Y-3725468D01*
X-1580540Y-3717086D01*
X-1579727Y-3708400D01*
X-1580540Y-3699713D01*
X-1583029Y-3691331D01*
X-1586992Y-3683609D01*
X-1592427Y-3676751D01*
X-1599031Y-3671062D01*
X-1606499Y-3666693D01*
X-1614779Y-3663848D01*
X-1623415Y-3662578D01*
X-1632102Y-3662984D01*
X-1640636Y-3665067D01*
X-1648917Y-3668877D01*
X-1652981Y-3669792D01*
X-1657045Y-3668979D01*
X-1660448Y-3666642D01*
X-1662734Y-3663086D01*
X-1663293Y-3658971D01*
X-1662175Y-3654958D01*
X-1659229Y-3649268D01*
X-1656740Y-3640886D01*
X-1655927Y-3632200D01*
X-1656740Y-3623513D01*
X-1659229Y-3615131D01*
X-1663192Y-3607409D01*
X-1668627Y-3600551D01*
X-1675231Y-3594862D01*
X-1682699Y-3590493D01*
X-1690979Y-3587648D01*
X-1699615Y-3586378D01*
X-1708302Y-3586784D01*
X-1716836Y-3588867D01*
X-1724761Y-3592474D01*
X-1731822Y-3597554D01*
X-1737817Y-3603853D01*
X-1742541Y-3611168D01*
X-1745843Y-3619296D01*
X-1747418Y-3627831D01*
X-1747418Y-3636568D01*
X-1745843Y-3645103D01*
X-1742541Y-3653231D01*
X-1737817Y-3660546D01*
X-1731822Y-3666845D01*
X-1724761Y-3671925D01*
X-1716836Y-3675532D01*
X-1708302Y-3677615D01*
X-1699615Y-3678021D01*
X-1690979Y-3676751D01*
X-1682699Y-3673906D01*
X-1679193Y-3671874D01*
X-1674977Y-3670554D01*
X-1670456Y-3671163D01*
X-1666798Y-3673652D01*
X-1664462Y-3677513D01*
X-1664004Y-3681933D01*
X-1665579Y-3686149D01*
X-1666341Y-3687368D01*
X-1669643Y-3695496D01*
X-1671218Y-3704031D01*
X-1671218Y-3712768D01*
X-1669643Y-3721303D01*
X-1666341Y-3729431D01*
X-1661617Y-3736746D01*
X-1655622Y-3743045D01*
X-1648561Y-3748125D01*
X-1640636Y-3751732D01*
X-1632102Y-3753815D01*
G37*
G36*
X2149398Y-3726230D02*
G01*
X2305812Y-3726230D01*
X2312111Y-3725519D01*
X2317597Y-3723589D01*
X2322474Y-3720541D01*
X2326538Y-3716426D01*
X2329586Y-3711549D01*
X2331516Y-3706063D01*
X2332228Y-3699764D01*
X2332228Y-3543401D01*
X2331516Y-3537102D01*
X2329586Y-3531615D01*
X2326538Y-3526739D01*
X2322474Y-3522624D01*
X2317597Y-3519576D01*
X2312111Y-3517646D01*
X2305812Y-3516934D01*
X2149398Y-3516934D01*
X2143150Y-3517646D01*
X2137613Y-3519576D01*
X2132736Y-3522624D01*
X2128672Y-3526739D01*
X2125624Y-3531615D01*
X2123694Y-3537102D01*
X2122982Y-3543401D01*
X2122982Y-3699764D01*
X2123694Y-3706063D01*
X2125624Y-3711549D01*
X2128672Y-3716426D01*
X2132736Y-3720541D01*
X2137613Y-3723589D01*
X2143150Y-3725519D01*
G37*
G36*
X-1813864Y-3589172D02*
G01*
X-1805279Y-3587902D01*
X-1796999Y-3585057D01*
X-1789480Y-3580688D01*
X-1782927Y-3574999D01*
X-1777492Y-3568141D01*
X-1773529Y-3560419D01*
X-1771040Y-3552037D01*
X-1770227Y-3543350D01*
X-1771040Y-3534664D01*
X-1773529Y-3526282D01*
X-1777492Y-3518560D01*
X-1782927Y-3511702D01*
X-1789480Y-3506012D01*
X-1796999Y-3501644D01*
X-1805279Y-3498799D01*
X-1813864Y-3497529D01*
X-1822602Y-3497935D01*
X-1831035Y-3500018D01*
X-1838960Y-3503625D01*
X-1846072Y-3508705D01*
X-1852117Y-3515004D01*
X-1856841Y-3522319D01*
X-1860042Y-3530447D01*
X-1861718Y-3538982D01*
X-1861718Y-3547719D01*
X-1860042Y-3556254D01*
X-1856841Y-3564382D01*
X-1852117Y-3571697D01*
X-1846072Y-3577996D01*
X-1838960Y-3583076D01*
X-1831035Y-3586683D01*
X-1822602Y-3588765D01*
G37*
G36*
X539038Y-3571290D02*
G01*
X791972Y-3571290D01*
X798220Y-3570579D01*
X803757Y-3568649D01*
X808634Y-3565601D01*
X812749Y-3561486D01*
X815797Y-3556609D01*
X817727Y-3551123D01*
X818438Y-3544824D01*
X818438Y-2885541D01*
X817727Y-2879242D01*
X815797Y-2873756D01*
X812749Y-2868879D01*
X808634Y-2864764D01*
X803757Y-2861716D01*
X798220Y-2859786D01*
X791972Y-2859074D01*
X539038Y-2859074D01*
X532790Y-2859786D01*
X527304Y-2861716D01*
X522427Y-2864764D01*
X518261Y-2868879D01*
X515213Y-2873756D01*
X513283Y-2879242D01*
X512572Y-2885541D01*
X512572Y-3544824D01*
X513283Y-3551123D01*
X515213Y-3556609D01*
X518261Y-3561486D01*
X522427Y-3565601D01*
X527304Y-3568649D01*
X532790Y-3570579D01*
G37*
G36*
X2227630Y-3472230D02*
G01*
X2241245Y-3471316D01*
X2254656Y-3468624D01*
X2267661Y-3464255D01*
X2279954Y-3458210D01*
X2291283Y-3450590D01*
X2301595Y-3441547D01*
X2310638Y-3431286D01*
X2318258Y-3419906D01*
X2324252Y-3407613D01*
X2328672Y-3394659D01*
X2331313Y-3381248D01*
X2332228Y-3367582D01*
X2331313Y-3353917D01*
X2328672Y-3340506D01*
X2324252Y-3327552D01*
X2318258Y-3315258D01*
X2310638Y-3303879D01*
X2301595Y-3293618D01*
X2291283Y-3284575D01*
X2279954Y-3276955D01*
X2267661Y-3270910D01*
X2254656Y-3266541D01*
X2241245Y-3263849D01*
X2227630Y-3262934D01*
X2213965Y-3263849D01*
X2200554Y-3266541D01*
X2187600Y-3270910D01*
X2175256Y-3276955D01*
X2163927Y-3284575D01*
X2153615Y-3293618D01*
X2144623Y-3303879D01*
X2136952Y-3315258D01*
X2130958Y-3327552D01*
X2126538Y-3340506D01*
X2123897Y-3353917D01*
X2122982Y-3367582D01*
X2123897Y-3381248D01*
X2126538Y-3394659D01*
X2130958Y-3407613D01*
X2136952Y-3419906D01*
X2144623Y-3431286D01*
X2153615Y-3441547D01*
X2163927Y-3450590D01*
X2175256Y-3458210D01*
X2187600Y-3464255D01*
X2200554Y-3468624D01*
X2213965Y-3471316D01*
G37*
G36*
X-540969Y-3448050D02*
G01*
X-526440Y-3447135D01*
X-512165Y-3444443D01*
X-498297Y-3439922D01*
X-485140Y-3433724D01*
X-472897Y-3425951D01*
X-461670Y-3416655D01*
X-451713Y-3406038D01*
X-443179Y-3394252D01*
X-436168Y-3381501D01*
X-430733Y-3367989D01*
X-427177Y-3353917D01*
X-425297Y-3339439D01*
X-425297Y-3324910D01*
X-427177Y-3310483D01*
X-430733Y-3296361D01*
X-436168Y-3282848D01*
X-443179Y-3270097D01*
X-451713Y-3258312D01*
X-461670Y-3247694D01*
X-472897Y-3238449D01*
X-485140Y-3230626D01*
X-498297Y-3224428D01*
X-512165Y-3219958D01*
X-526440Y-3217214D01*
X-540969Y-3216300D01*
X-555548Y-3217214D01*
X-569772Y-3219958D01*
X-583692Y-3224428D01*
X-596849Y-3230626D01*
X-609092Y-3238449D01*
X-620318Y-3247694D01*
X-630275Y-3258312D01*
X-638810Y-3270097D01*
X-645820Y-3282848D01*
X-651256Y-3296361D01*
X-654812Y-3310483D01*
X-656691Y-3324910D01*
X-656691Y-3339439D01*
X-654812Y-3353917D01*
X-651256Y-3367989D01*
X-645820Y-3381501D01*
X-638810Y-3394252D01*
X-630275Y-3406038D01*
X-620318Y-3416655D01*
X-609092Y-3425951D01*
X-596849Y-3433724D01*
X-583692Y-3439922D01*
X-569772Y-3444443D01*
X-555548Y-3447135D01*
G37*
G36*
X-1813915Y-3436721D02*
G01*
X-1805279Y-3435451D01*
X-1796999Y-3432606D01*
X-1789531Y-3428237D01*
X-1782927Y-3422548D01*
X-1777492Y-3415690D01*
X-1773529Y-3407968D01*
X-1771040Y-3399586D01*
X-1770227Y-3390900D01*
X-1771040Y-3382213D01*
X-1773529Y-3373831D01*
X-1777492Y-3366109D01*
X-1782927Y-3359251D01*
X-1789531Y-3353562D01*
X-1796999Y-3349193D01*
X-1805279Y-3346348D01*
X-1813915Y-3345078D01*
X-1822602Y-3345484D01*
X-1831136Y-3347567D01*
X-1839061Y-3351174D01*
X-1846122Y-3356254D01*
X-1852117Y-3362553D01*
X-1856841Y-3369868D01*
X-1860143Y-3377996D01*
X-1861718Y-3386531D01*
X-1861718Y-3395268D01*
X-1860143Y-3403803D01*
X-1856841Y-3411931D01*
X-1852117Y-3419246D01*
X-1846122Y-3425545D01*
X-1839061Y-3430625D01*
X-1831136Y-3434232D01*
X-1822602Y-3436315D01*
G37*
G36*
X-3045764Y-3398672D02*
G01*
X-3037179Y-3397402D01*
X-3028899Y-3394557D01*
X-3021380Y-3390188D01*
X-3014827Y-3384499D01*
X-3009392Y-3377641D01*
X-3005429Y-3369919D01*
X-3002940Y-3361537D01*
X-3002127Y-3352850D01*
X-3002940Y-3344164D01*
X-3005429Y-3335782D01*
X-3009392Y-3328060D01*
X-3014827Y-3321202D01*
X-3021380Y-3315512D01*
X-3028899Y-3311144D01*
X-3037179Y-3308299D01*
X-3045764Y-3307029D01*
X-3054502Y-3307435D01*
X-3062935Y-3309518D01*
X-3070860Y-3313125D01*
X-3077972Y-3318205D01*
X-3084017Y-3324504D01*
X-3088741Y-3331819D01*
X-3091942Y-3339947D01*
X-3093618Y-3348482D01*
X-3093618Y-3357219D01*
X-3091942Y-3365754D01*
X-3088741Y-3373882D01*
X-3084017Y-3381197D01*
X-3077972Y-3387496D01*
X-3070860Y-3392576D01*
X-3062935Y-3396183D01*
X-3054502Y-3398265D01*
G37*
G36*
X-2387549Y-3358387D02*
G01*
X-2377795Y-3357524D01*
X-2368296Y-3354984D01*
X-2359406Y-3350818D01*
X-2351379Y-3345179D01*
X-2344369Y-3338220D01*
X-2338781Y-3330194D01*
X-2334615Y-3321304D01*
X-2332075Y-3311804D01*
X-2331212Y-3302000D01*
X-2332075Y-3292195D01*
X-2334615Y-3282696D01*
X-2338781Y-3273806D01*
X-2344369Y-3265779D01*
X-2351379Y-3258820D01*
X-2359406Y-3253181D01*
X-2368296Y-3249015D01*
X-2377795Y-3246475D01*
X-2387549Y-3245612D01*
X-2397404Y-3246475D01*
X-2406904Y-3249015D01*
X-2415794Y-3253181D01*
X-2423820Y-3258820D01*
X-2430830Y-3265779D01*
X-2436418Y-3273806D01*
X-2440584Y-3282696D01*
X-2443124Y-3292195D01*
X-2443988Y-3302000D01*
X-2443124Y-3311804D01*
X-2440584Y-3321304D01*
X-2436418Y-3330194D01*
X-2430830Y-3338220D01*
X-2423820Y-3345179D01*
X-2415794Y-3350818D01*
X-2406904Y-3354984D01*
X-2397404Y-3357524D01*
G37*
G36*
X-2578049Y-3345687D02*
G01*
X-2568295Y-3344824D01*
X-2558796Y-3342284D01*
X-2549906Y-3338118D01*
X-2541879Y-3332479D01*
X-2534869Y-3325520D01*
X-2529281Y-3317494D01*
X-2525115Y-3308604D01*
X-2522575Y-3299104D01*
X-2521712Y-3289300D01*
X-2522575Y-3279495D01*
X-2525115Y-3269996D01*
X-2529281Y-3261106D01*
X-2534869Y-3253079D01*
X-2541879Y-3246120D01*
X-2549906Y-3240481D01*
X-2558796Y-3236315D01*
X-2568295Y-3233775D01*
X-2578049Y-3232912D01*
X-2587904Y-3233775D01*
X-2597404Y-3236315D01*
X-2606294Y-3240481D01*
X-2614320Y-3246120D01*
X-2621330Y-3253079D01*
X-2626918Y-3261106D01*
X-2631084Y-3269996D01*
X-2633624Y-3279495D01*
X-2634488Y-3289300D01*
X-2633624Y-3299104D01*
X-2631084Y-3308604D01*
X-2626918Y-3317494D01*
X-2621330Y-3325520D01*
X-2614320Y-3332479D01*
X-2606294Y-3338118D01*
X-2597404Y-3342284D01*
X-2587904Y-3344824D01*
G37*
G36*
X-1001115Y-3309721D02*
G01*
X-992479Y-3308451D01*
X-984199Y-3305606D01*
X-976731Y-3301237D01*
X-970127Y-3295548D01*
X-964692Y-3288690D01*
X-960729Y-3280968D01*
X-958240Y-3272586D01*
X-957427Y-3263900D01*
X-958240Y-3255213D01*
X-960729Y-3246831D01*
X-964692Y-3239109D01*
X-970127Y-3232251D01*
X-976731Y-3226562D01*
X-984199Y-3222193D01*
X-992479Y-3219348D01*
X-1001115Y-3218078D01*
X-1009802Y-3218484D01*
X-1018336Y-3220567D01*
X-1026261Y-3224174D01*
X-1033322Y-3229254D01*
X-1039317Y-3235553D01*
X-1044041Y-3242868D01*
X-1047343Y-3250996D01*
X-1048918Y-3259531D01*
X-1048918Y-3268268D01*
X-1047343Y-3276803D01*
X-1044041Y-3284931D01*
X-1039317Y-3292246D01*
X-1033322Y-3298545D01*
X-1026261Y-3303625D01*
X-1018336Y-3307232D01*
X-1009802Y-3309315D01*
G37*
G36*
X-3693464Y-3271672D02*
G01*
X-3684828Y-3270402D01*
X-3676599Y-3267557D01*
X-3669080Y-3263188D01*
X-3662476Y-3257499D01*
X-3657092Y-3250641D01*
X-3653078Y-3242919D01*
X-3650640Y-3234537D01*
X-3649776Y-3225850D01*
X-3650640Y-3217164D01*
X-3653078Y-3208782D01*
X-3657092Y-3201060D01*
X-3662476Y-3194202D01*
X-3669080Y-3188512D01*
X-3676599Y-3184144D01*
X-3684828Y-3181299D01*
X-3693464Y-3180029D01*
X-3702202Y-3180435D01*
X-3710635Y-3182518D01*
X-3718560Y-3186125D01*
X-3725722Y-3191205D01*
X-3731717Y-3197504D01*
X-3736441Y-3204819D01*
X-3739642Y-3212947D01*
X-3741369Y-3221482D01*
X-3741369Y-3230219D01*
X-3739642Y-3238754D01*
X-3736441Y-3246882D01*
X-3731717Y-3254197D01*
X-3725722Y-3260496D01*
X-3718560Y-3265576D01*
X-3710635Y-3269183D01*
X-3702202Y-3271265D01*
G37*
G36*
X2227630Y-3218230D02*
G01*
X2241245Y-3217316D01*
X2254656Y-3214624D01*
X2267661Y-3210255D01*
X2279954Y-3204210D01*
X2291283Y-3196590D01*
X2301595Y-3187547D01*
X2310638Y-3177286D01*
X2318258Y-3165906D01*
X2324252Y-3153613D01*
X2328672Y-3140659D01*
X2331313Y-3127248D01*
X2332228Y-3113582D01*
X2331313Y-3099917D01*
X2328672Y-3086506D01*
X2324252Y-3073552D01*
X2318258Y-3061258D01*
X2310638Y-3049879D01*
X2301595Y-3039618D01*
X2291283Y-3030575D01*
X2279954Y-3022955D01*
X2267661Y-3016910D01*
X2254656Y-3012541D01*
X2241245Y-3009849D01*
X2227630Y-3008934D01*
X2213965Y-3009849D01*
X2200554Y-3012541D01*
X2187600Y-3016910D01*
X2175256Y-3022955D01*
X2163927Y-3030575D01*
X2153615Y-3039618D01*
X2144623Y-3049879D01*
X2136952Y-3061258D01*
X2130958Y-3073552D01*
X2126538Y-3086506D01*
X2123897Y-3099917D01*
X2122982Y-3113582D01*
X2123897Y-3127248D01*
X2126538Y-3140659D01*
X2130958Y-3153613D01*
X2136952Y-3165906D01*
X2144623Y-3177286D01*
X2153615Y-3187547D01*
X2163927Y-3196590D01*
X2175256Y-3204210D01*
X2187600Y-3210255D01*
X2200554Y-3214624D01*
X2213965Y-3217316D01*
G37*
G36*
X-2387549Y-3205988D02*
G01*
X-2377795Y-3205124D01*
X-2368296Y-3202584D01*
X-2359406Y-3198418D01*
X-2351379Y-3192780D01*
X-2344369Y-3185820D01*
X-2338781Y-3177794D01*
X-2334615Y-3168904D01*
X-2332075Y-3159404D01*
X-2331212Y-3149600D01*
X-2332075Y-3139795D01*
X-2334615Y-3130296D01*
X-2338781Y-3121406D01*
X-2344369Y-3113379D01*
X-2351379Y-3106420D01*
X-2359406Y-3100781D01*
X-2368296Y-3096615D01*
X-2377795Y-3094075D01*
X-2387549Y-3093212D01*
X-2397404Y-3094075D01*
X-2406904Y-3096615D01*
X-2415794Y-3100781D01*
X-2423820Y-3106420D01*
X-2430830Y-3113379D01*
X-2436418Y-3121406D01*
X-2440584Y-3130296D01*
X-2443124Y-3139795D01*
X-2443988Y-3149600D01*
X-2443124Y-3159404D01*
X-2440584Y-3168904D01*
X-2436418Y-3177794D01*
X-2430830Y-3185820D01*
X-2423820Y-3192780D01*
X-2415794Y-3198418D01*
X-2406904Y-3202584D01*
X-2397404Y-3205124D01*
G37*
G36*
X-2585669Y-3157270D02*
G01*
X-2575864Y-3156407D01*
X-2566365Y-3153867D01*
X-2557526Y-3149701D01*
X-2549448Y-3144062D01*
X-2542540Y-3137103D01*
X-2536901Y-3129076D01*
X-2532684Y-3120186D01*
X-2530195Y-3110687D01*
X-2529281Y-3100882D01*
X-2530195Y-3091078D01*
X-2532684Y-3081578D01*
X-2536901Y-3072688D01*
X-2542540Y-3064662D01*
X-2549448Y-3057702D01*
X-2557526Y-3052064D01*
X-2566365Y-3047898D01*
X-2575864Y-3045358D01*
X-2585669Y-3044494D01*
X-2595524Y-3045358D01*
X-2605024Y-3047898D01*
X-2613863Y-3052064D01*
X-2621940Y-3057702D01*
X-2628849Y-3064662D01*
X-2634488Y-3072688D01*
X-2638704Y-3081578D01*
X-2641193Y-3091078D01*
X-2642108Y-3100882D01*
X-2641193Y-3110687D01*
X-2638704Y-3120186D01*
X-2634488Y-3129076D01*
X-2628849Y-3137103D01*
X-2621940Y-3144062D01*
X-2613863Y-3149701D01*
X-2605024Y-3153867D01*
X-2595524Y-3156407D01*
G37*
G36*
X-1598015Y-3106521D02*
G01*
X-1589379Y-3105251D01*
X-1581099Y-3102406D01*
X-1573631Y-3098038D01*
X-1567027Y-3092348D01*
X-1561592Y-3085490D01*
X-1557629Y-3077768D01*
X-1555140Y-3069386D01*
X-1554327Y-3060700D01*
X-1555140Y-3052013D01*
X-1557629Y-3043631D01*
X-1561592Y-3035909D01*
X-1567027Y-3029051D01*
X-1573631Y-3023362D01*
X-1581099Y-3018993D01*
X-1589379Y-3016148D01*
X-1598015Y-3014878D01*
X-1606702Y-3015284D01*
X-1615236Y-3017367D01*
X-1623161Y-3020974D01*
X-1630222Y-3026054D01*
X-1636217Y-3032353D01*
X-1640941Y-3039668D01*
X-1644243Y-3047796D01*
X-1645818Y-3056331D01*
X-1645818Y-3065068D01*
X-1644243Y-3073603D01*
X-1640941Y-3081731D01*
X-1636217Y-3089046D01*
X-1630222Y-3095345D01*
X-1623161Y-3100425D01*
X-1615236Y-3104032D01*
X-1606702Y-3106115D01*
G37*
G36*
X-2468930Y-3040481D02*
G01*
X-2459075Y-3039618D01*
X-2449576Y-3037078D01*
X-2440736Y-3032912D01*
X-2432659Y-3027273D01*
X-2425750Y-3020314D01*
X-2420061Y-3012287D01*
X-2415895Y-3003397D01*
X-2413406Y-2993898D01*
X-2412492Y-2984093D01*
X-2413406Y-2974289D01*
X-2415895Y-2964789D01*
X-2420061Y-2955899D01*
X-2425750Y-2947873D01*
X-2432659Y-2940913D01*
X-2440736Y-2935274D01*
X-2449576Y-2931109D01*
X-2459075Y-2928569D01*
X-2468930Y-2927705D01*
X-2478684Y-2928569D01*
X-2488234Y-2931109D01*
X-2497074Y-2935274D01*
X-2505151Y-2940913D01*
X-2512060Y-2947873D01*
X-2517698Y-2955899D01*
X-2521915Y-2964789D01*
X-2524404Y-2974289D01*
X-2525318Y-2984093D01*
X-2524404Y-2993898D01*
X-2521915Y-3003397D01*
X-2517698Y-3012287D01*
X-2512060Y-3020314D01*
X-2505151Y-3027273D01*
X-2497074Y-3032912D01*
X-2488234Y-3037078D01*
X-2478684Y-3039618D01*
G37*
G36*
X2227630Y-2964230D02*
G01*
X2241245Y-2963316D01*
X2254656Y-2960624D01*
X2267661Y-2956255D01*
X2279954Y-2950210D01*
X2291283Y-2942590D01*
X2301595Y-2933547D01*
X2310638Y-2923286D01*
X2318258Y-2911906D01*
X2324252Y-2899613D01*
X2328672Y-2886659D01*
X2331313Y-2873248D01*
X2332228Y-2859582D01*
X2331313Y-2845917D01*
X2328672Y-2832506D01*
X2324252Y-2819552D01*
X2318258Y-2807258D01*
X2310638Y-2795879D01*
X2301595Y-2785618D01*
X2291283Y-2776575D01*
X2279954Y-2768955D01*
X2267661Y-2762910D01*
X2254656Y-2758541D01*
X2241245Y-2755849D01*
X2227630Y-2754934D01*
X2213965Y-2755849D01*
X2200554Y-2758541D01*
X2187600Y-2762910D01*
X2175256Y-2768955D01*
X2163927Y-2776575D01*
X2153615Y-2785618D01*
X2144623Y-2795879D01*
X2136952Y-2807258D01*
X2130958Y-2819552D01*
X2126538Y-2832506D01*
X2123897Y-2845917D01*
X2122982Y-2859582D01*
X2123897Y-2873248D01*
X2126538Y-2886659D01*
X2130958Y-2899613D01*
X2136952Y-2911906D01*
X2144623Y-2923286D01*
X2153615Y-2933547D01*
X2163927Y-2942590D01*
X2175256Y-2950210D01*
X2187600Y-2956255D01*
X2200554Y-2960624D01*
X2213965Y-2963316D01*
G37*
G36*
X-540969Y-2960065D02*
G01*
X-526440Y-2959150D01*
X-512165Y-2956407D01*
X-498297Y-2951937D01*
X-485140Y-2945739D01*
X-472897Y-2937916D01*
X-461670Y-2928670D01*
X-451713Y-2918053D01*
X-443179Y-2906268D01*
X-436168Y-2893517D01*
X-430733Y-2880004D01*
X-427177Y-2865882D01*
X-425297Y-2851454D01*
X-425297Y-2836926D01*
X-427177Y-2822448D01*
X-430733Y-2808376D01*
X-436168Y-2794812D01*
X-443179Y-2782062D01*
X-451713Y-2770327D01*
X-461670Y-2759710D01*
X-472897Y-2750413D01*
X-485140Y-2742641D01*
X-498297Y-2736443D01*
X-512165Y-2731922D01*
X-526440Y-2729230D01*
X-540969Y-2728315D01*
X-555548Y-2729230D01*
X-569772Y-2731922D01*
X-583692Y-2736443D01*
X-596849Y-2742641D01*
X-609092Y-2750413D01*
X-620318Y-2759710D01*
X-630275Y-2770327D01*
X-638810Y-2782062D01*
X-645820Y-2794812D01*
X-651256Y-2808376D01*
X-654812Y-2822448D01*
X-656691Y-2836926D01*
X-656691Y-2851454D01*
X-654812Y-2865882D01*
X-651256Y-2880004D01*
X-645820Y-2893517D01*
X-638810Y-2906268D01*
X-630275Y-2918053D01*
X-620318Y-2928670D01*
X-609092Y-2937916D01*
X-596849Y-2945739D01*
X-583692Y-2951937D01*
X-569772Y-2956407D01*
X-555548Y-2959150D01*
G37*
G36*
X-3693515Y-2954121D02*
G01*
X-3684879Y-2952851D01*
X-3676599Y-2950006D01*
X-3669080Y-2945638D01*
X-3662476Y-2939948D01*
X-3657092Y-2933090D01*
X-3653078Y-2925368D01*
X-3650640Y-2916986D01*
X-3649878Y-2908300D01*
X-3650640Y-2899613D01*
X-3653078Y-2891231D01*
X-3657092Y-2883509D01*
X-3662476Y-2876651D01*
X-3669080Y-2870962D01*
X-3676599Y-2866593D01*
X-3684879Y-2863748D01*
X-3693515Y-2862478D01*
X-3702253Y-2862884D01*
X-3710686Y-2864967D01*
X-3718610Y-2868574D01*
X-3725722Y-2873654D01*
X-3731717Y-2879953D01*
X-3736492Y-2887268D01*
X-3739743Y-2895396D01*
X-3741369Y-2903931D01*
X-3741369Y-2912668D01*
X-3739743Y-2921203D01*
X-3736492Y-2929331D01*
X-3731717Y-2936646D01*
X-3725722Y-2942945D01*
X-3718610Y-2948025D01*
X-3710686Y-2951632D01*
X-3702253Y-2953715D01*
G37*
G36*
X2227630Y-2710230D02*
G01*
X2241245Y-2709316D01*
X2254656Y-2706624D01*
X2267661Y-2702255D01*
X2279954Y-2696210D01*
X2291283Y-2688590D01*
X2301595Y-2679547D01*
X2310638Y-2669286D01*
X2318258Y-2657906D01*
X2324252Y-2645613D01*
X2328672Y-2632659D01*
X2331313Y-2619248D01*
X2332228Y-2605582D01*
X2331313Y-2591917D01*
X2328672Y-2578506D01*
X2324252Y-2565552D01*
X2318258Y-2553258D01*
X2310638Y-2541879D01*
X2301595Y-2531618D01*
X2291283Y-2522575D01*
X2279954Y-2514955D01*
X2267661Y-2508910D01*
X2254656Y-2504541D01*
X2241245Y-2501849D01*
X2227630Y-2500934D01*
X2213965Y-2501849D01*
X2200554Y-2504541D01*
X2187600Y-2508910D01*
X2175256Y-2514955D01*
X2163927Y-2522575D01*
X2153615Y-2531618D01*
X2144623Y-2541879D01*
X2136952Y-2553258D01*
X2130958Y-2565552D01*
X2126538Y-2578506D01*
X2123897Y-2591917D01*
X2122982Y-2605582D01*
X2123897Y-2619248D01*
X2126538Y-2632659D01*
X2130958Y-2645613D01*
X2136952Y-2657906D01*
X2144623Y-2669286D01*
X2153615Y-2679547D01*
X2163927Y-2688590D01*
X2175256Y-2696210D01*
X2187600Y-2702255D01*
X2200554Y-2706624D01*
X2213965Y-2709316D01*
G37*
G36*
X1132535Y-2484272D02*
G01*
X1141120Y-2483002D01*
X1149400Y-2480157D01*
X1156919Y-2475788D01*
X1163472Y-2470099D01*
X1168908Y-2463241D01*
X1172870Y-2455519D01*
X1175359Y-2447137D01*
X1176172Y-2438450D01*
X1175512Y-2431338D01*
X1176070Y-2427071D01*
X1178306Y-2423363D01*
X1181862Y-2420975D01*
X1186129Y-2420264D01*
X1196035Y-2420772D01*
X1204620Y-2419502D01*
X1212900Y-2416657D01*
X1220419Y-2412288D01*
X1226972Y-2406599D01*
X1232408Y-2399741D01*
X1236370Y-2392019D01*
X1238859Y-2383637D01*
X1239672Y-2374950D01*
X1238859Y-2366264D01*
X1236370Y-2357882D01*
X1233424Y-2352141D01*
X1232306Y-2348128D01*
X1232865Y-2344013D01*
X1235151Y-2340457D01*
X1238554Y-2338120D01*
X1242618Y-2337308D01*
X1246682Y-2338222D01*
X1254963Y-2342032D01*
X1263497Y-2344115D01*
X1272184Y-2344521D01*
X1280820Y-2343251D01*
X1289100Y-2340406D01*
X1296568Y-2336038D01*
X1303172Y-2330348D01*
X1308608Y-2323490D01*
X1312570Y-2315768D01*
X1315059Y-2307386D01*
X1315872Y-2298700D01*
X1315059Y-2290013D01*
X1312570Y-2281631D01*
X1309624Y-2275941D01*
X1308506Y-2271928D01*
X1309065Y-2267813D01*
X1311351Y-2264257D01*
X1314754Y-2261920D01*
X1318818Y-2261108D01*
X1322882Y-2262022D01*
X1331163Y-2265832D01*
X1339697Y-2267915D01*
X1348384Y-2268321D01*
X1357020Y-2267051D01*
X1365300Y-2264206D01*
X1372768Y-2259838D01*
X1379372Y-2254148D01*
X1384808Y-2247290D01*
X1388770Y-2239568D01*
X1391259Y-2231186D01*
X1392072Y-2222500D01*
X1391259Y-2213813D01*
X1388770Y-2205431D01*
X1384808Y-2197709D01*
X1379372Y-2190851D01*
X1372768Y-2185162D01*
X1365300Y-2180793D01*
X1357020Y-2177948D01*
X1348384Y-2176678D01*
X1339697Y-2177084D01*
X1331163Y-2179167D01*
X1323238Y-2182774D01*
X1316177Y-2187854D01*
X1310182Y-2194153D01*
X1305458Y-2201468D01*
X1302156Y-2209596D01*
X1300581Y-2218131D01*
X1300581Y-2226868D01*
X1302156Y-2235403D01*
X1305458Y-2243531D01*
X1306220Y-2244750D01*
X1307795Y-2248966D01*
X1307338Y-2253386D01*
X1305001Y-2257247D01*
X1301343Y-2259736D01*
X1296822Y-2260346D01*
X1292606Y-2259025D01*
X1289100Y-2256993D01*
X1280820Y-2254148D01*
X1272184Y-2252878D01*
X1263497Y-2253284D01*
X1254963Y-2255367D01*
X1247038Y-2258974D01*
X1239977Y-2264054D01*
X1233982Y-2270353D01*
X1229258Y-2277668D01*
X1225956Y-2285796D01*
X1224381Y-2294331D01*
X1224381Y-2303068D01*
X1225956Y-2311603D01*
X1229258Y-2319731D01*
X1230020Y-2321001D01*
X1231595Y-2325217D01*
X1231188Y-2329637D01*
X1228902Y-2333498D01*
X1225143Y-2335987D01*
X1220724Y-2336596D01*
X1216406Y-2335276D01*
X1212900Y-2333244D01*
X1204620Y-2330399D01*
X1196035Y-2329129D01*
X1187297Y-2329535D01*
X1178864Y-2331618D01*
X1170940Y-2335225D01*
X1163828Y-2340305D01*
X1157782Y-2346604D01*
X1153058Y-2353919D01*
X1149858Y-2362047D01*
X1148181Y-2370582D01*
X1148181Y-2379319D01*
X1148588Y-2381351D01*
X1148588Y-2385161D01*
X1147165Y-2388768D01*
X1144524Y-2391511D01*
X1141018Y-2393137D01*
X1137158Y-2393289D01*
X1132535Y-2392629D01*
X1123797Y-2393035D01*
X1115364Y-2395118D01*
X1107440Y-2398725D01*
X1100328Y-2403805D01*
X1094282Y-2410104D01*
X1089558Y-2417419D01*
X1086358Y-2425547D01*
X1084681Y-2434082D01*
X1084681Y-2442819D01*
X1086358Y-2451354D01*
X1089558Y-2459482D01*
X1094282Y-2466797D01*
X1100328Y-2473096D01*
X1107440Y-2478176D01*
X1115364Y-2481783D01*
X1123797Y-2483866D01*
G37*
G36*
X2227630Y-2456230D02*
G01*
X2241245Y-2455316D01*
X2254656Y-2452624D01*
X2267661Y-2448255D01*
X2279954Y-2442210D01*
X2291283Y-2434590D01*
X2301595Y-2425547D01*
X2310638Y-2415286D01*
X2318258Y-2403906D01*
X2324252Y-2391613D01*
X2328672Y-2378659D01*
X2331313Y-2365248D01*
X2332228Y-2351582D01*
X2331313Y-2337917D01*
X2328672Y-2324506D01*
X2324252Y-2311552D01*
X2318258Y-2299258D01*
X2310638Y-2287879D01*
X2301595Y-2277618D01*
X2291283Y-2268575D01*
X2279954Y-2260955D01*
X2267661Y-2254910D01*
X2254656Y-2250541D01*
X2241245Y-2247849D01*
X2227630Y-2246934D01*
X2213965Y-2247849D01*
X2200554Y-2250541D01*
X2187600Y-2254910D01*
X2175256Y-2260955D01*
X2163927Y-2268575D01*
X2153615Y-2277618D01*
X2144623Y-2287879D01*
X2136952Y-2299258D01*
X2130958Y-2311552D01*
X2126538Y-2324506D01*
X2123897Y-2337917D01*
X2122982Y-2351582D01*
X2123897Y-2365248D01*
X2126538Y-2378659D01*
X2130958Y-2391613D01*
X2136952Y-2403906D01*
X2144623Y-2415286D01*
X2153615Y-2425547D01*
X2163927Y-2434590D01*
X2175256Y-2442210D01*
X2187600Y-2448255D01*
X2200554Y-2452624D01*
X2213965Y-2455316D01*
G37*
G36*
X-3007664Y-2395372D02*
G01*
X-2999079Y-2394102D01*
X-2990799Y-2391257D01*
X-2983280Y-2386888D01*
X-2976727Y-2381199D01*
X-2971292Y-2374341D01*
X-2967329Y-2366619D01*
X-2964840Y-2358237D01*
X-2964027Y-2349550D01*
X-2964840Y-2340864D01*
X-2967329Y-2332482D01*
X-2971292Y-2324760D01*
X-2976727Y-2317902D01*
X-2983280Y-2312212D01*
X-2990799Y-2307844D01*
X-2999079Y-2304999D01*
X-3007664Y-2303729D01*
X-3016402Y-2304135D01*
X-3024835Y-2306218D01*
X-3032760Y-2309825D01*
X-3039872Y-2314905D01*
X-3045917Y-2321204D01*
X-3050641Y-2328519D01*
X-3053842Y-2336647D01*
X-3055518Y-2345182D01*
X-3055518Y-2353919D01*
X-3053842Y-2362454D01*
X-3050641Y-2370582D01*
X-3045917Y-2377897D01*
X-3039872Y-2384196D01*
X-3032760Y-2389276D01*
X-3024835Y-2392883D01*
X-3016402Y-2394966D01*
G37*
G36*
X-2906115Y-2230221D02*
G01*
X-2897479Y-2228951D01*
X-2889199Y-2226106D01*
X-2881731Y-2221738D01*
X-2875127Y-2216048D01*
X-2869692Y-2209190D01*
X-2865729Y-2201468D01*
X-2863240Y-2193086D01*
X-2862427Y-2184400D01*
X-2863240Y-2175713D01*
X-2865729Y-2167331D01*
X-2869692Y-2159609D01*
X-2875127Y-2152751D01*
X-2881731Y-2147062D01*
X-2889199Y-2142693D01*
X-2897479Y-2139848D01*
X-2906115Y-2138578D01*
X-2914802Y-2138984D01*
X-2917748Y-2139696D01*
X-2921508Y-2139899D01*
X-2925114Y-2138629D01*
X-2928061Y-2136190D01*
X-2929788Y-2132787D01*
X-2930245Y-2128977D01*
X-2926740Y-2116937D01*
X-2925927Y-2108250D01*
X-2926740Y-2099564D01*
X-2929229Y-2091182D01*
X-2933192Y-2083460D01*
X-2938627Y-2076602D01*
X-2945180Y-2070912D01*
X-2952699Y-2066543D01*
X-2960979Y-2063699D01*
X-2969564Y-2062429D01*
X-2978302Y-2062835D01*
X-2986735Y-2064918D01*
X-2994660Y-2068525D01*
X-3001772Y-2073605D01*
X-3007817Y-2079904D01*
X-3012541Y-2087219D01*
X-3015742Y-2095347D01*
X-3017418Y-2103882D01*
X-3017418Y-2112619D01*
X-3015742Y-2121154D01*
X-3012541Y-2129282D01*
X-3007817Y-2136597D01*
X-3001772Y-2142896D01*
X-2994660Y-2147976D01*
X-2986735Y-2151583D01*
X-2978302Y-2153666D01*
X-2969564Y-2154072D01*
X-2961284Y-2152853D01*
X-2957017Y-2153158D01*
X-2953359Y-2155139D01*
X-2950667Y-2158441D01*
X-2949651Y-2162556D01*
X-2950413Y-2166721D01*
X-2952343Y-2171496D01*
X-2953918Y-2180031D01*
X-2953918Y-2188768D01*
X-2952343Y-2197303D01*
X-2949041Y-2205431D01*
X-2944317Y-2212746D01*
X-2938322Y-2219045D01*
X-2931261Y-2224125D01*
X-2923336Y-2227732D01*
X-2914802Y-2229815D01*
G37*
G36*
X1437335Y-2179472D02*
G01*
X1445920Y-2178202D01*
X1454200Y-2175357D01*
X1461719Y-2170988D01*
X1468272Y-2165299D01*
X1473708Y-2158441D01*
X1477670Y-2150719D01*
X1480159Y-2142337D01*
X1480972Y-2133650D01*
X1480159Y-2124964D01*
X1477670Y-2116582D01*
X1473708Y-2108860D01*
X1468272Y-2102002D01*
X1461719Y-2096312D01*
X1454200Y-2091943D01*
X1445920Y-2089099D01*
X1437335Y-2087829D01*
X1428597Y-2088235D01*
X1420164Y-2090318D01*
X1412240Y-2093925D01*
X1405128Y-2099005D01*
X1399082Y-2105304D01*
X1394358Y-2112619D01*
X1391158Y-2120747D01*
X1389481Y-2129282D01*
X1389481Y-2138019D01*
X1391158Y-2146554D01*
X1394358Y-2154682D01*
X1399082Y-2161997D01*
X1405128Y-2168296D01*
X1412240Y-2173376D01*
X1420164Y-2176983D01*
X1428597Y-2179066D01*
G37*
G36*
X-2588615Y-2141321D02*
G01*
X-2579979Y-2140051D01*
X-2571699Y-2137206D01*
X-2564231Y-2132838D01*
X-2557627Y-2127148D01*
X-2552192Y-2120290D01*
X-2548229Y-2112568D01*
X-2545740Y-2104186D01*
X-2544927Y-2095500D01*
X-2545740Y-2086813D01*
X-2548229Y-2078431D01*
X-2552192Y-2070709D01*
X-2557627Y-2063851D01*
X-2564231Y-2058162D01*
X-2571699Y-2053793D01*
X-2579979Y-2050948D01*
X-2588615Y-2049678D01*
X-2597302Y-2050084D01*
X-2605836Y-2052167D01*
X-2613761Y-2055774D01*
X-2620822Y-2060854D01*
X-2626817Y-2067153D01*
X-2631541Y-2074468D01*
X-2634843Y-2082596D01*
X-2636418Y-2091131D01*
X-2636418Y-2099868D01*
X-2634843Y-2108403D01*
X-2631541Y-2116531D01*
X-2626817Y-2123846D01*
X-2620822Y-2130145D01*
X-2613761Y-2135225D01*
X-2605836Y-2138832D01*
X-2597302Y-2140915D01*
G37*
G36*
X1615135Y-2065172D02*
G01*
X1623720Y-2063902D01*
X1632000Y-2061057D01*
X1639519Y-2056688D01*
X1646072Y-2050999D01*
X1651507Y-2044141D01*
X1655470Y-2036419D01*
X1657959Y-2028037D01*
X1658772Y-2019350D01*
X1657959Y-2010664D01*
X1655470Y-2002282D01*
X1651507Y-1994560D01*
X1646072Y-1987702D01*
X1639519Y-1982012D01*
X1632000Y-1977643D01*
X1623720Y-1974799D01*
X1615135Y-1973529D01*
X1606397Y-1973935D01*
X1597964Y-1976018D01*
X1590040Y-1979625D01*
X1582928Y-1984705D01*
X1576882Y-1991004D01*
X1572158Y-1998319D01*
X1568958Y-2006447D01*
X1567281Y-2014982D01*
X1567281Y-2023719D01*
X1568958Y-2032254D01*
X1572158Y-2040382D01*
X1576882Y-2047697D01*
X1582928Y-2053996D01*
X1590040Y-2059076D01*
X1597964Y-2062683D01*
X1606397Y-2064766D01*
G37*
G36*
X-1712315Y-2065121D02*
G01*
X-1703679Y-2063851D01*
X-1695399Y-2061006D01*
X-1687931Y-2056638D01*
X-1681327Y-2050948D01*
X-1675892Y-2044090D01*
X-1671929Y-2036368D01*
X-1669440Y-2027986D01*
X-1668627Y-2019300D01*
X-1669440Y-2010613D01*
X-1671929Y-2002231D01*
X-1675892Y-1994509D01*
X-1681327Y-1987651D01*
X-1687931Y-1981962D01*
X-1695399Y-1977593D01*
X-1703679Y-1974748D01*
X-1712315Y-1973478D01*
X-1721002Y-1973884D01*
X-1729536Y-1975967D01*
X-1737461Y-1979574D01*
X-1744522Y-1984654D01*
X-1750517Y-1990953D01*
X-1755241Y-1998268D01*
X-1758543Y-2006396D01*
X-1760118Y-2014931D01*
X-1760118Y-2023668D01*
X-1758543Y-2032203D01*
X-1755241Y-2040331D01*
X-1750517Y-2047646D01*
X-1744522Y-2053945D01*
X-1737461Y-2059025D01*
X-1729536Y-2062632D01*
X-1721002Y-2064715D01*
G37*
G36*
X-112115Y-2039721D02*
G01*
X-103479Y-2038451D01*
X-95199Y-2035606D01*
X-87731Y-2031238D01*
X-81127Y-2025548D01*
X-75692Y-2018690D01*
X-71729Y-2010968D01*
X-69240Y-2002586D01*
X-68427Y-1993900D01*
X-69240Y-1985213D01*
X-71729Y-1976831D01*
X-75692Y-1969109D01*
X-81127Y-1962251D01*
X-87731Y-1956562D01*
X-95199Y-1952193D01*
X-103479Y-1949348D01*
X-112115Y-1948078D01*
X-120802Y-1948484D01*
X-129336Y-1950567D01*
X-137261Y-1954174D01*
X-144322Y-1959254D01*
X-150317Y-1965553D01*
X-155041Y-1972868D01*
X-158343Y-1980996D01*
X-159918Y-1989531D01*
X-159918Y-1998268D01*
X-158343Y-2006803D01*
X-155041Y-2014931D01*
X-150317Y-2022246D01*
X-144322Y-2028545D01*
X-137261Y-2033625D01*
X-129336Y-2037232D01*
X-120802Y-2039315D01*
G37*
G36*
X-2385415Y-2027021D02*
G01*
X-2376779Y-2025751D01*
X-2368499Y-2022906D01*
X-2361031Y-2018538D01*
X-2354427Y-2012848D01*
X-2348992Y-2005990D01*
X-2345029Y-1998268D01*
X-2342540Y-1989886D01*
X-2341727Y-1981200D01*
X-2342540Y-1972513D01*
X-2345029Y-1964131D01*
X-2348992Y-1956409D01*
X-2354427Y-1949551D01*
X-2361031Y-1943862D01*
X-2368499Y-1939493D01*
X-2376779Y-1936648D01*
X-2385415Y-1935378D01*
X-2394102Y-1935784D01*
X-2402636Y-1937867D01*
X-2410561Y-1941474D01*
X-2417622Y-1946554D01*
X-2423617Y-1952853D01*
X-2428341Y-1960168D01*
X-2431643Y-1968296D01*
X-2433218Y-1976831D01*
X-2433218Y-1985568D01*
X-2431643Y-1994103D01*
X-2428341Y-2002231D01*
X-2423617Y-2009546D01*
X-2417622Y-2015845D01*
X-2410561Y-2020925D01*
X-2402636Y-2024532D01*
X-2394102Y-2026615D01*
G37*
G36*
X-2855315Y-2001621D02*
G01*
X-2846679Y-2000351D01*
X-2838399Y-1997506D01*
X-2830931Y-1993138D01*
X-2824327Y-1987448D01*
X-2818892Y-1980590D01*
X-2814929Y-1972868D01*
X-2812440Y-1964486D01*
X-2811627Y-1955800D01*
X-2812440Y-1947113D01*
X-2814929Y-1938731D01*
X-2818892Y-1931009D01*
X-2824327Y-1924151D01*
X-2830931Y-1918462D01*
X-2838399Y-1914093D01*
X-2846679Y-1911248D01*
X-2855315Y-1909978D01*
X-2864002Y-1910384D01*
X-2872536Y-1912467D01*
X-2880461Y-1916074D01*
X-2887522Y-1921154D01*
X-2893517Y-1927453D01*
X-2898241Y-1934768D01*
X-2901543Y-1942896D01*
X-2903118Y-1951431D01*
X-2903118Y-1960168D01*
X-2901543Y-1968703D01*
X-2898241Y-1976831D01*
X-2893517Y-1984146D01*
X-2887522Y-1990445D01*
X-2880461Y-1995525D01*
X-2872536Y-1999132D01*
X-2864002Y-2001215D01*
G37*
G36*
X-2385415Y-1861921D02*
G01*
X-2376779Y-1860651D01*
X-2368499Y-1857806D01*
X-2361031Y-1853438D01*
X-2354427Y-1847748D01*
X-2348992Y-1840890D01*
X-2345029Y-1833168D01*
X-2342540Y-1824786D01*
X-2341727Y-1816100D01*
X-2342540Y-1807413D01*
X-2345029Y-1799031D01*
X-2348992Y-1791309D01*
X-2354427Y-1784451D01*
X-2361031Y-1778762D01*
X-2368499Y-1774393D01*
X-2376779Y-1771548D01*
X-2385415Y-1770278D01*
X-2394102Y-1770684D01*
X-2402636Y-1772767D01*
X-2410561Y-1776374D01*
X-2417622Y-1781454D01*
X-2423617Y-1787753D01*
X-2428341Y-1795068D01*
X-2431643Y-1803196D01*
X-2433218Y-1811731D01*
X-2433218Y-1820468D01*
X-2431643Y-1829003D01*
X-2428341Y-1837131D01*
X-2423617Y-1844446D01*
X-2417622Y-1850745D01*
X-2410561Y-1855825D01*
X-2402636Y-1859432D01*
X-2394102Y-1861515D01*
G37*
G36*
X-835964Y-1785772D02*
G01*
X-827379Y-1784502D01*
X-819099Y-1781657D01*
X-811580Y-1777288D01*
X-805027Y-1771599D01*
X-799592Y-1764741D01*
X-795629Y-1757019D01*
X-793140Y-1748637D01*
X-792327Y-1739950D01*
X-793140Y-1731264D01*
X-795629Y-1722882D01*
X-799592Y-1715160D01*
X-805027Y-1708302D01*
X-811580Y-1702612D01*
X-819099Y-1698243D01*
X-827379Y-1695399D01*
X-835964Y-1694129D01*
X-844702Y-1694535D01*
X-853135Y-1696618D01*
X-861060Y-1700225D01*
X-865682Y-1703527D01*
X-869187Y-1705102D01*
X-873048Y-1705305D01*
X-876706Y-1704035D01*
X-879652Y-1701546D01*
X-881329Y-1698091D01*
X-881684Y-1694281D01*
X-881227Y-1689100D01*
X-882040Y-1680413D01*
X-884529Y-1672031D01*
X-888492Y-1664309D01*
X-893927Y-1657451D01*
X-900531Y-1651762D01*
X-907999Y-1647393D01*
X-916279Y-1644548D01*
X-924915Y-1643278D01*
X-934516Y-1643735D01*
X-938276Y-1643176D01*
X-941679Y-1641297D01*
X-943965Y-1638249D01*
X-945083Y-1634540D01*
X-945540Y-1629613D01*
X-948029Y-1621231D01*
X-951992Y-1613509D01*
X-957427Y-1606651D01*
X-964031Y-1600962D01*
X-971499Y-1596593D01*
X-979779Y-1593748D01*
X-988415Y-1592478D01*
X-997102Y-1592884D01*
X-1005636Y-1594967D01*
X-1013561Y-1598574D01*
X-1020622Y-1603654D01*
X-1026617Y-1609953D01*
X-1031341Y-1617268D01*
X-1034643Y-1625396D01*
X-1036218Y-1633931D01*
X-1036218Y-1642668D01*
X-1034643Y-1651203D01*
X-1031341Y-1659331D01*
X-1026617Y-1666646D01*
X-1020622Y-1672945D01*
X-1013561Y-1678025D01*
X-1005636Y-1681632D01*
X-997102Y-1683715D01*
X-988415Y-1684121D01*
X-984402Y-1683512D01*
X-980084Y-1683816D01*
X-976274Y-1685848D01*
X-973734Y-1689252D01*
X-972718Y-1693468D01*
X-971143Y-1702003D01*
X-967841Y-1710131D01*
X-963117Y-1717446D01*
X-957122Y-1723745D01*
X-950061Y-1728825D01*
X-942136Y-1732432D01*
X-933602Y-1734515D01*
X-924915Y-1734921D01*
X-916279Y-1733651D01*
X-907999Y-1730806D01*
X-899617Y-1725980D01*
X-896518Y-1724761D01*
X-892810Y-1724507D01*
X-889304Y-1725625D01*
X-886358Y-1727860D01*
X-884529Y-1731010D01*
X-883818Y-1734616D01*
X-883818Y-1744319D01*
X-882142Y-1752854D01*
X-878941Y-1760982D01*
X-874217Y-1768297D01*
X-868171Y-1774596D01*
X-861060Y-1779676D01*
X-853135Y-1783283D01*
X-844702Y-1785366D01*
G37*
G36*
X-3274415Y-1646021D02*
G01*
X-3265779Y-1644751D01*
X-3257499Y-1641906D01*
X-3249980Y-1637538D01*
X-3243376Y-1631848D01*
X-3237992Y-1624990D01*
X-3233978Y-1617268D01*
X-3231540Y-1608886D01*
X-3230778Y-1600200D01*
X-3231540Y-1591513D01*
X-3233978Y-1583131D01*
X-3237992Y-1575409D01*
X-3243376Y-1568551D01*
X-3249371Y-1563420D01*
X-3251911Y-1559966D01*
X-3252876Y-1555750D01*
X-3251911Y-1551533D01*
X-3249371Y-1548079D01*
X-3243376Y-1542948D01*
X-3237992Y-1536090D01*
X-3233978Y-1528368D01*
X-3231540Y-1519986D01*
X-3230778Y-1511300D01*
X-3231540Y-1502613D01*
X-3233978Y-1494231D01*
X-3237992Y-1486509D01*
X-3243376Y-1479651D01*
X-3249980Y-1473962D01*
X-3257499Y-1469593D01*
X-3265779Y-1466748D01*
X-3274415Y-1465478D01*
X-3283153Y-1465884D01*
X-3291586Y-1467967D01*
X-3299510Y-1471574D01*
X-3306622Y-1476654D01*
X-3312617Y-1482953D01*
X-3317392Y-1490268D01*
X-3320643Y-1498396D01*
X-3322269Y-1506931D01*
X-3322269Y-1515668D01*
X-3320643Y-1524203D01*
X-3317392Y-1532331D01*
X-3312617Y-1539646D01*
X-3306622Y-1545945D01*
X-3304540Y-1547469D01*
X-3301847Y-1550263D01*
X-3300374Y-1553819D01*
X-3300374Y-1557680D01*
X-3301847Y-1561236D01*
X-3304540Y-1564030D01*
X-3306622Y-1565554D01*
X-3312617Y-1571853D01*
X-3317392Y-1579168D01*
X-3320643Y-1587296D01*
X-3322269Y-1595831D01*
X-3322269Y-1604568D01*
X-3320643Y-1613103D01*
X-3317392Y-1621231D01*
X-3312617Y-1628546D01*
X-3306622Y-1634845D01*
X-3299510Y-1639925D01*
X-3291586Y-1643532D01*
X-3283153Y-1645615D01*
G37*
G36*
X-772515Y-1633321D02*
G01*
X-763879Y-1632051D01*
X-755599Y-1629206D01*
X-748131Y-1624838D01*
X-741527Y-1619148D01*
X-736092Y-1612290D01*
X-732129Y-1604568D01*
X-729640Y-1596186D01*
X-728827Y-1587500D01*
X-729640Y-1578813D01*
X-732129Y-1570431D01*
X-736092Y-1562709D01*
X-741527Y-1555851D01*
X-748131Y-1550162D01*
X-755599Y-1545793D01*
X-763879Y-1542948D01*
X-772515Y-1541678D01*
X-781202Y-1542084D01*
X-789736Y-1544167D01*
X-797661Y-1547774D01*
X-804722Y-1552854D01*
X-810717Y-1559153D01*
X-815441Y-1566468D01*
X-818743Y-1574596D01*
X-820318Y-1583131D01*
X-820318Y-1591868D01*
X-818743Y-1600403D01*
X-815441Y-1608531D01*
X-810717Y-1615846D01*
X-804722Y-1622145D01*
X-797661Y-1627225D01*
X-789736Y-1630832D01*
X-781202Y-1632915D01*
G37*
G36*
X-1229715Y-1607921D02*
G01*
X-1221079Y-1606651D01*
X-1212799Y-1603806D01*
X-1205331Y-1599438D01*
X-1198727Y-1593748D01*
X-1193292Y-1586890D01*
X-1189329Y-1579168D01*
X-1186840Y-1570786D01*
X-1186027Y-1562100D01*
X-1186840Y-1553413D01*
X-1189329Y-1545031D01*
X-1193292Y-1537309D01*
X-1198727Y-1530451D01*
X-1205331Y-1524762D01*
X-1212799Y-1520393D01*
X-1221079Y-1517548D01*
X-1229715Y-1516278D01*
X-1238402Y-1516684D01*
X-1246936Y-1518767D01*
X-1251661Y-1520139D01*
X-1255522Y-1519580D01*
X-1258824Y-1517650D01*
X-1261211Y-1514652D01*
X-1262227Y-1510944D01*
X-1263040Y-1502613D01*
X-1265529Y-1494231D01*
X-1269492Y-1486509D01*
X-1274927Y-1479651D01*
X-1281531Y-1473962D01*
X-1288999Y-1469593D01*
X-1297279Y-1466748D01*
X-1305915Y-1465478D01*
X-1314602Y-1465884D01*
X-1323136Y-1467967D01*
X-1331061Y-1471574D01*
X-1338122Y-1476654D01*
X-1344117Y-1482953D01*
X-1348841Y-1490268D01*
X-1352143Y-1498396D01*
X-1353718Y-1506931D01*
X-1353718Y-1515668D01*
X-1352143Y-1524203D01*
X-1348841Y-1532331D01*
X-1344117Y-1539646D01*
X-1338122Y-1545945D01*
X-1331061Y-1551025D01*
X-1323136Y-1554632D01*
X-1314602Y-1556715D01*
X-1305915Y-1557121D01*
X-1297279Y-1555851D01*
X-1291031Y-1553718D01*
X-1287272Y-1553159D01*
X-1283462Y-1554073D01*
X-1280363Y-1556308D01*
X-1278331Y-1559509D01*
X-1277518Y-1563319D01*
X-1277518Y-1566468D01*
X-1275943Y-1575003D01*
X-1272641Y-1583131D01*
X-1267917Y-1590446D01*
X-1261922Y-1596745D01*
X-1254861Y-1601825D01*
X-1246936Y-1605432D01*
X-1238402Y-1607515D01*
G37*
G36*
X-2753715Y-1468221D02*
G01*
X-2745079Y-1466951D01*
X-2736799Y-1464106D01*
X-2729331Y-1459738D01*
X-2722727Y-1454048D01*
X-2717292Y-1447190D01*
X-2713329Y-1439468D01*
X-2710840Y-1431086D01*
X-2710027Y-1422400D01*
X-2710840Y-1413713D01*
X-2713329Y-1405331D01*
X-2717292Y-1397609D01*
X-2722727Y-1390751D01*
X-2729331Y-1385062D01*
X-2736799Y-1380693D01*
X-2745079Y-1377848D01*
X-2753715Y-1376578D01*
X-2762402Y-1376984D01*
X-2770936Y-1379067D01*
X-2778861Y-1382674D01*
X-2785922Y-1387754D01*
X-2791917Y-1394053D01*
X-2796641Y-1401368D01*
X-2799943Y-1409496D01*
X-2801518Y-1418031D01*
X-2801518Y-1426768D01*
X-2799943Y-1435303D01*
X-2796641Y-1443431D01*
X-2791917Y-1450746D01*
X-2785922Y-1457045D01*
X-2778861Y-1462125D01*
X-2770936Y-1465732D01*
X-2762402Y-1467815D01*
G37*
G36*
X-1077315Y-1430121D02*
G01*
X-1068679Y-1428851D01*
X-1060399Y-1426006D01*
X-1052931Y-1421638D01*
X-1046327Y-1415948D01*
X-1040892Y-1409090D01*
X-1036929Y-1401368D01*
X-1034440Y-1392986D01*
X-1033627Y-1384300D01*
X-1034440Y-1375613D01*
X-1036929Y-1367231D01*
X-1040892Y-1359509D01*
X-1046327Y-1352651D01*
X-1052931Y-1346962D01*
X-1060399Y-1342593D01*
X-1068679Y-1339748D01*
X-1077315Y-1338478D01*
X-1086002Y-1338884D01*
X-1094536Y-1340967D01*
X-1102461Y-1344574D01*
X-1109522Y-1349654D01*
X-1115517Y-1355953D01*
X-1120241Y-1363268D01*
X-1123543Y-1371396D01*
X-1125118Y-1379931D01*
X-1125118Y-1388668D01*
X-1123543Y-1397203D01*
X-1120241Y-1405331D01*
X-1115517Y-1412646D01*
X-1109522Y-1418945D01*
X-1102461Y-1424025D01*
X-1094536Y-1427632D01*
X-1086002Y-1429715D01*
G37*
G36*
X129184Y-1328521D02*
G01*
X137820Y-1327251D01*
X146100Y-1324406D01*
X153568Y-1320038D01*
X160172Y-1314348D01*
X165608Y-1307490D01*
X169570Y-1299768D01*
X172059Y-1291386D01*
X172872Y-1282700D01*
X172059Y-1274013D01*
X169570Y-1265631D01*
X165608Y-1257909D01*
X160172Y-1251051D01*
X153568Y-1245362D01*
X146100Y-1240993D01*
X137820Y-1238148D01*
X129184Y-1236878D01*
X120497Y-1237284D01*
X111963Y-1239367D01*
X104038Y-1242974D01*
X96977Y-1248054D01*
X90982Y-1254353D01*
X86258Y-1261668D01*
X82956Y-1269796D01*
X81381Y-1278331D01*
X81381Y-1287068D01*
X82956Y-1295603D01*
X86258Y-1303731D01*
X90982Y-1311046D01*
X96977Y-1317345D01*
X104038Y-1322425D01*
X111963Y-1326032D01*
X120497Y-1328115D01*
G37*
G36*
X916584Y-782421D02*
G01*
X925220Y-781151D01*
X933500Y-778306D01*
X940968Y-773938D01*
X947572Y-768248D01*
X953008Y-761390D01*
X956970Y-753668D01*
X959459Y-745286D01*
X960272Y-736600D01*
X959459Y-727913D01*
X956970Y-719531D01*
X953008Y-711809D01*
X947572Y-704951D01*
X940968Y-699262D01*
X933500Y-694893D01*
X925220Y-692048D01*
X916584Y-690778D01*
X907897Y-691184D01*
X899363Y-693267D01*
X891438Y-696874D01*
X884377Y-701954D01*
X878382Y-708253D01*
X873658Y-715568D01*
X870356Y-723696D01*
X868781Y-732231D01*
X868781Y-740968D01*
X870356Y-749503D01*
X873658Y-757631D01*
X878382Y-764946D01*
X884377Y-771245D01*
X891438Y-776325D01*
X899363Y-779932D01*
X907897Y-782015D01*
G37*
G36*
X637184Y-706221D02*
G01*
X645820Y-704951D01*
X654100Y-702106D01*
X661568Y-697738D01*
X668172Y-692048D01*
X673608Y-685190D01*
X677570Y-677468D01*
X680059Y-669086D01*
X680872Y-660400D01*
X680059Y-651713D01*
X677570Y-643331D01*
X673608Y-635609D01*
X668172Y-628751D01*
X661568Y-623062D01*
X654100Y-618693D01*
X645820Y-615848D01*
X637184Y-614578D01*
X628497Y-614984D01*
X619963Y-617067D01*
X612038Y-620674D01*
X604977Y-625754D01*
X598982Y-632053D01*
X594258Y-639368D01*
X590956Y-647496D01*
X589381Y-656031D01*
X589381Y-664768D01*
X590956Y-673303D01*
X594258Y-681431D01*
X598982Y-688746D01*
X604977Y-695045D01*
X612038Y-700125D01*
X619963Y-703732D01*
X628497Y-705815D01*
G37*
G36*
X-3083864Y-414172D02*
G01*
X-3075279Y-412902D01*
X-3066999Y-410057D01*
X-3059480Y-405688D01*
X-3052927Y-399999D01*
X-3047492Y-393141D01*
X-3043529Y-385419D01*
X-3041040Y-377037D01*
X-3040329Y-369417D01*
X-3039211Y-365760D01*
X-3036824Y-362712D01*
X-3033522Y-360781D01*
X-3030931Y-359918D01*
X-3027070Y-359359D01*
X-3023362Y-360273D01*
X-3020263Y-362508D01*
X-3018129Y-365709D01*
X-3017418Y-369519D01*
X-3017418Y-372719D01*
X-3015742Y-381254D01*
X-3012541Y-389382D01*
X-3007817Y-396697D01*
X-3001772Y-402996D01*
X-2994660Y-408076D01*
X-2986735Y-411683D01*
X-2978302Y-413766D01*
X-2969564Y-414172D01*
X-2960979Y-412902D01*
X-2952699Y-410057D01*
X-2945180Y-405688D01*
X-2938627Y-399999D01*
X-2933192Y-393141D01*
X-2929229Y-385419D01*
X-2926740Y-377037D01*
X-2925927Y-368350D01*
X-2926740Y-359664D01*
X-2929229Y-351282D01*
X-2933192Y-343560D01*
X-2938627Y-336702D01*
X-2945180Y-331012D01*
X-2952699Y-326644D01*
X-2960979Y-323799D01*
X-2966669Y-322935D01*
X-2970631Y-321513D01*
X-2973679Y-318566D01*
X-2975254Y-314655D01*
X-2975051Y-310388D01*
X-2973222Y-306628D01*
X-2971292Y-304190D01*
X-2967329Y-296468D01*
X-2964840Y-288086D01*
X-2964027Y-279400D01*
X-2964840Y-270713D01*
X-2967329Y-262331D01*
X-2971292Y-254609D01*
X-2976727Y-247751D01*
X-2983331Y-242062D01*
X-2990799Y-237693D01*
X-2999079Y-234848D01*
X-3007715Y-233578D01*
X-3016402Y-233984D01*
X-3024936Y-236067D01*
X-3032861Y-239674D01*
X-3039922Y-244754D01*
X-3045917Y-251053D01*
X-3050641Y-258368D01*
X-3054299Y-267614D01*
X-3055975Y-270408D01*
X-3058363Y-272491D01*
X-3063036Y-274167D01*
X-3070961Y-277774D01*
X-3078022Y-282854D01*
X-3084017Y-289153D01*
X-3088741Y-296468D01*
X-3092043Y-304596D01*
X-3093618Y-313131D01*
X-3093618Y-315214D01*
X-3094431Y-319024D01*
X-3096463Y-322275D01*
X-3099663Y-324510D01*
X-3109061Y-328676D01*
X-3116072Y-333705D01*
X-3122117Y-340004D01*
X-3126841Y-347319D01*
X-3130042Y-355447D01*
X-3131718Y-363982D01*
X-3131718Y-372719D01*
X-3130042Y-381254D01*
X-3126841Y-389382D01*
X-3122117Y-396697D01*
X-3116072Y-402996D01*
X-3108960Y-408076D01*
X-3101035Y-411683D01*
X-3092602Y-413766D01*
G37*
G36*
X916584Y-388721D02*
G01*
X925220Y-387451D01*
X933500Y-384606D01*
X940968Y-380238D01*
X947572Y-374548D01*
X953008Y-367690D01*
X956970Y-359968D01*
X959459Y-351586D01*
X960272Y-342900D01*
X959459Y-334213D01*
X956970Y-325831D01*
X953008Y-318109D01*
X947572Y-311251D01*
X940968Y-305562D01*
X933500Y-301193D01*
X925220Y-298348D01*
X916584Y-297078D01*
X907897Y-297484D01*
X899363Y-299567D01*
X891438Y-303174D01*
X884377Y-308254D01*
X878382Y-314553D01*
X873658Y-321868D01*
X870356Y-329996D01*
X868781Y-338531D01*
X868781Y-347268D01*
X870356Y-355803D01*
X873658Y-363931D01*
X878382Y-371246D01*
X884377Y-377545D01*
X891438Y-382625D01*
X899363Y-386232D01*
X907897Y-388315D01*
G37*
G36*
X-505815Y-312521D02*
G01*
X-497179Y-311251D01*
X-488899Y-308406D01*
X-481431Y-304038D01*
X-474827Y-298348D01*
X-469392Y-291490D01*
X-465429Y-283768D01*
X-462940Y-275386D01*
X-462127Y-266700D01*
X-462940Y-258013D01*
X-465429Y-249631D01*
X-469392Y-241909D01*
X-474827Y-235051D01*
X-481431Y-229362D01*
X-488899Y-224993D01*
X-497179Y-222148D01*
X-505815Y-220878D01*
X-514502Y-221284D01*
X-523036Y-223367D01*
X-530961Y-226974D01*
X-538022Y-232054D01*
X-544017Y-238353D01*
X-548741Y-245668D01*
X-552043Y-253796D01*
X-553618Y-262331D01*
X-553618Y-271068D01*
X-552043Y-279603D01*
X-548741Y-287731D01*
X-544017Y-295046D01*
X-538022Y-301345D01*
X-530961Y-306425D01*
X-523036Y-310032D01*
X-514502Y-312115D01*
G37*
G36*
X-328015Y-299821D02*
G01*
X-319379Y-298551D01*
X-311099Y-295706D01*
X-303631Y-291338D01*
X-297027Y-285648D01*
X-291592Y-278790D01*
X-287629Y-271068D01*
X-285140Y-262686D01*
X-284327Y-254000D01*
X-285140Y-245313D01*
X-287629Y-236931D01*
X-291592Y-229209D01*
X-297129Y-222199D01*
X-299059Y-218135D01*
X-299059Y-213664D01*
X-297129Y-209600D01*
X-291592Y-202590D01*
X-287629Y-194868D01*
X-285140Y-186486D01*
X-284327Y-177800D01*
X-285140Y-169113D01*
X-287629Y-160731D01*
X-291592Y-153009D01*
X-297027Y-146151D01*
X-303631Y-140462D01*
X-311099Y-136093D01*
X-319379Y-133248D01*
X-328015Y-131978D01*
X-336702Y-132384D01*
X-345236Y-134467D01*
X-353161Y-138074D01*
X-360222Y-143154D01*
X-366217Y-149453D01*
X-370941Y-156768D01*
X-374243Y-164896D01*
X-375818Y-173431D01*
X-375818Y-182168D01*
X-374243Y-190703D01*
X-370941Y-198831D01*
X-366217Y-206146D01*
X-363677Y-208889D01*
X-361543Y-212140D01*
X-360781Y-215900D01*
X-361543Y-219659D01*
X-363677Y-222910D01*
X-366217Y-225653D01*
X-370941Y-232968D01*
X-374243Y-241096D01*
X-375818Y-249631D01*
X-375818Y-258368D01*
X-374243Y-266903D01*
X-370941Y-275031D01*
X-366217Y-282346D01*
X-360222Y-288645D01*
X-353161Y-293725D01*
X-345236Y-297332D01*
X-336702Y-299415D01*
G37*
G36*
X-629869Y-198170D02*
G01*
X-620064Y-197307D01*
X-610565Y-194767D01*
X-601726Y-190601D01*
X-593648Y-184962D01*
X-586740Y-178003D01*
X-581101Y-169976D01*
X-576884Y-161086D01*
X-574395Y-151587D01*
X-573481Y-141782D01*
X-574395Y-131978D01*
X-576884Y-122478D01*
X-581101Y-113588D01*
X-586740Y-105562D01*
X-593648Y-98602D01*
X-601726Y-92964D01*
X-610565Y-88798D01*
X-620064Y-86258D01*
X-629869Y-85394D01*
X-639724Y-86258D01*
X-649224Y-88798D01*
X-658063Y-92964D01*
X-666140Y-98602D01*
X-673049Y-105562D01*
X-678688Y-113588D01*
X-682904Y-122478D01*
X-685393Y-131978D01*
X-686308Y-141782D01*
X-685393Y-151587D01*
X-682904Y-161086D01*
X-678688Y-169976D01*
X-673049Y-178003D01*
X-666140Y-184962D01*
X-658063Y-190601D01*
X-649224Y-194767D01*
X-639724Y-197307D01*
G37*
G36*
X604215Y-187604D02*
G01*
X612851Y-186334D01*
X621080Y-183489D01*
X628599Y-179120D01*
X635152Y-173431D01*
X640588Y-166573D01*
X644601Y-158851D01*
X646988Y-150469D01*
X647852Y-141782D01*
X646988Y-133096D01*
X644601Y-124714D01*
X640588Y-116992D01*
X635152Y-110134D01*
X628599Y-104444D01*
X621080Y-100076D01*
X612851Y-97231D01*
X604215Y-95961D01*
X595477Y-96367D01*
X586994Y-98450D01*
X579069Y-102057D01*
X572008Y-107137D01*
X565912Y-113436D01*
X561238Y-120751D01*
X558038Y-128879D01*
X556361Y-137414D01*
X556361Y-146151D01*
X558038Y-154686D01*
X561238Y-162814D01*
X565912Y-170129D01*
X572008Y-176428D01*
X579069Y-181508D01*
X586994Y-185115D01*
X595477Y-187198D01*
G37*
G36*
X-1760169Y-83870D02*
G01*
X-1750364Y-83007D01*
X-1740865Y-80467D01*
X-1732025Y-76301D01*
X-1723948Y-70662D01*
X-1717039Y-63703D01*
X-1711401Y-55676D01*
X-1707184Y-46786D01*
X-1704695Y-37287D01*
X-1703781Y-27482D01*
X-1704695Y-17678D01*
X-1707184Y-8178D01*
X-1711401Y711D01*
X-1717039Y8737D01*
X-1723948Y15697D01*
X-1732025Y21336D01*
X-1740865Y25501D01*
X-1750364Y28041D01*
X-1760169Y28905D01*
X-1770024Y28041D01*
X-1779524Y25501D01*
X-1788363Y21336D01*
X-1796440Y15697D01*
X-1803349Y8737D01*
X-1808988Y711D01*
X-1813204Y-8178D01*
X-1815693Y-17678D01*
X-1816607Y-27482D01*
X-1815693Y-37287D01*
X-1813204Y-46786D01*
X-1808988Y-55676D01*
X-1803349Y-63703D01*
X-1796440Y-70662D01*
X-1788363Y-76301D01*
X-1779524Y-80467D01*
X-1770024Y-83007D01*
G37*
G36*
X-3174949Y-30988D02*
G01*
X-3165195Y-30124D01*
X-3155696Y-27584D01*
X-3146806Y-23418D01*
X-3138779Y-17780D01*
X-3131769Y-10820D01*
X-3126181Y-2794D01*
X-3122015Y6096D01*
X-3119475Y15595D01*
X-3118612Y25400D01*
X-3119475Y35204D01*
X-3122015Y44704D01*
X-3126181Y53593D01*
X-3131769Y61620D01*
X-3138779Y68580D01*
X-3146806Y74218D01*
X-3155696Y78384D01*
X-3165195Y80924D01*
X-3174949Y81788D01*
X-3184753Y80924D01*
X-3194304Y78384D01*
X-3203143Y74218D01*
X-3211271Y68580D01*
X-3218230Y61620D01*
X-3223768Y53593D01*
X-3227984Y44704D01*
X-3230473Y35204D01*
X-3231388Y25400D01*
X-3230473Y15595D01*
X-3227984Y6096D01*
X-3223768Y-2794D01*
X-3218230Y-10820D01*
X-3211271Y-17780D01*
X-3203143Y-23418D01*
X-3194304Y-27584D01*
X-3184753Y-30124D01*
G37*
G36*
X604215Y28295D02*
G01*
X612851Y29565D01*
X621080Y32410D01*
X628599Y36779D01*
X635152Y42468D01*
X640588Y49326D01*
X644601Y57048D01*
X646988Y65430D01*
X647852Y74117D01*
X646988Y82804D01*
X644601Y91186D01*
X640588Y98907D01*
X635152Y105765D01*
X628599Y111455D01*
X620522Y116128D01*
X617474Y118922D01*
X615696Y122783D01*
X615696Y127050D01*
X617474Y130911D01*
X620522Y133705D01*
X628599Y138379D01*
X635152Y144068D01*
X640588Y150926D01*
X644601Y158648D01*
X646988Y167030D01*
X647852Y175717D01*
X646988Y184404D01*
X644601Y192786D01*
X640588Y200507D01*
X635152Y207365D01*
X628599Y213055D01*
X620522Y217728D01*
X617474Y220522D01*
X615696Y224383D01*
X615696Y228650D01*
X617474Y232511D01*
X620522Y235305D01*
X628599Y239979D01*
X635152Y245668D01*
X640588Y252526D01*
X644601Y260248D01*
X646988Y268630D01*
X647852Y277317D01*
X646988Y286004D01*
X644601Y294386D01*
X640588Y302107D01*
X635152Y308965D01*
X628599Y314655D01*
X621080Y319024D01*
X612851Y321868D01*
X604215Y323138D01*
X595477Y322732D01*
X586994Y320649D01*
X579069Y317042D01*
X572008Y311962D01*
X565912Y305663D01*
X561238Y298348D01*
X558038Y290220D01*
X556361Y281686D01*
X556361Y272948D01*
X558038Y264414D01*
X561238Y256286D01*
X565912Y248970D01*
X572008Y242671D01*
X579069Y237591D01*
X583133Y235762D01*
X586282Y233527D01*
X588365Y230276D01*
X589026Y226517D01*
X588365Y222758D01*
X586282Y219506D01*
X583133Y217271D01*
X579069Y215442D01*
X572008Y210362D01*
X565912Y204063D01*
X561238Y196748D01*
X558038Y188620D01*
X556361Y180086D01*
X556361Y171348D01*
X558038Y162814D01*
X561238Y154686D01*
X565912Y147370D01*
X572008Y141071D01*
X579069Y135991D01*
X583133Y134162D01*
X586282Y131927D01*
X588365Y128676D01*
X589026Y124917D01*
X588365Y121158D01*
X586282Y117906D01*
X583133Y115671D01*
X579069Y113842D01*
X572008Y108762D01*
X565912Y102463D01*
X561238Y95148D01*
X558038Y87020D01*
X556361Y78486D01*
X556361Y69748D01*
X558038Y61214D01*
X561238Y53086D01*
X565912Y45770D01*
X572008Y39471D01*
X579069Y34391D01*
X586994Y30784D01*
X595477Y28702D01*
G37*
G36*
X-328015Y81178D02*
G01*
X-319379Y82448D01*
X-311099Y85293D01*
X-303631Y89662D01*
X-297027Y95351D01*
X-291592Y102209D01*
X-287629Y109931D01*
X-285140Y118313D01*
X-284327Y127000D01*
X-285140Y135686D01*
X-287629Y144068D01*
X-291592Y151790D01*
X-297027Y158648D01*
X-303631Y164338D01*
X-311658Y169011D01*
X-314807Y171805D01*
X-316534Y175666D01*
X-316534Y179933D01*
X-314807Y183794D01*
X-311658Y186588D01*
X-303631Y191262D01*
X-297027Y196951D01*
X-291592Y203809D01*
X-287629Y211531D01*
X-285140Y219913D01*
X-284327Y228600D01*
X-285140Y237286D01*
X-287629Y245668D01*
X-291592Y253390D01*
X-297027Y260248D01*
X-303631Y265938D01*
X-311099Y270306D01*
X-319379Y273151D01*
X-328015Y274421D01*
X-336702Y274015D01*
X-345236Y271932D01*
X-353161Y268325D01*
X-360222Y263245D01*
X-366217Y256946D01*
X-370941Y249631D01*
X-374243Y241503D01*
X-375818Y232968D01*
X-375818Y224231D01*
X-374243Y215696D01*
X-370941Y207568D01*
X-366217Y200253D01*
X-360222Y193954D01*
X-353161Y188874D01*
X-349097Y187045D01*
X-345998Y184810D01*
X-343865Y181559D01*
X-343204Y177800D01*
X-343865Y174040D01*
X-345998Y170789D01*
X-349097Y168554D01*
X-353161Y166725D01*
X-360222Y161645D01*
X-366217Y155346D01*
X-370941Y148031D01*
X-374243Y139903D01*
X-375818Y131368D01*
X-375818Y122631D01*
X-374243Y114096D01*
X-370941Y105968D01*
X-366217Y98653D01*
X-360222Y92354D01*
X-353161Y87274D01*
X-345236Y83667D01*
X-336702Y81584D01*
G37*
G36*
X-3157169Y109169D02*
G01*
X-3143554Y110083D01*
X-3130143Y112776D01*
X-3117138Y117144D01*
X-3104845Y123189D01*
X-3093516Y130810D01*
X-3083204Y139852D01*
X-3074162Y150114D01*
X-3066542Y161493D01*
X-3060547Y173786D01*
X-3056128Y186740D01*
X-3053486Y200152D01*
X-3052572Y213817D01*
X-3053486Y227482D01*
X-3056128Y240893D01*
X-3060547Y253847D01*
X-3066542Y266141D01*
X-3074162Y277520D01*
X-3083204Y287782D01*
X-3093516Y296824D01*
X-3104845Y304444D01*
X-3117138Y310489D01*
X-3130143Y314858D01*
X-3143554Y317550D01*
X-3157169Y318465D01*
X-3170834Y317550D01*
X-3184245Y314858D01*
X-3197199Y310489D01*
X-3209493Y304444D01*
X-3220872Y296824D01*
X-3231134Y287782D01*
X-3240176Y277520D01*
X-3247847Y266141D01*
X-3253892Y253847D01*
X-3258261Y240893D01*
X-3260902Y227482D01*
X-3261817Y213817D01*
X-3260902Y200152D01*
X-3258261Y186740D01*
X-3253892Y173786D01*
X-3247847Y161493D01*
X-3240176Y150114D01*
X-3231134Y139852D01*
X-3220872Y130810D01*
X-3209493Y123189D01*
X-3197199Y117144D01*
X-3184245Y112776D01*
X-3170834Y110083D01*
G37*
G36*
X-2857449Y119938D02*
G01*
X-2850845Y123189D01*
X-2839516Y130810D01*
X-2829204Y139852D01*
X-2820162Y150114D01*
X-2812542Y161493D01*
X-2809341Y168097D01*
X-2857449Y168097D01*
G37*
G36*
X-2948940Y119938D02*
G01*
X-2948940Y168097D01*
X-2997047Y168097D01*
X-2993847Y161493D01*
X-2986176Y150114D01*
X-2977184Y139852D01*
X-2966872Y130810D01*
X-2955544Y123189D01*
G37*
G36*
X-2997047Y259537D02*
G01*
X-2948940Y259537D01*
X-2948940Y307695D01*
X-2955544Y304444D01*
X-2966872Y296824D01*
X-2977184Y287782D01*
X-2986176Y277520D01*
X-2993847Y266141D01*
G37*
G36*
X-2857449Y259537D02*
G01*
X-2809341Y259537D01*
X-2812542Y266141D01*
X-2820162Y277520D01*
X-2829204Y287782D01*
X-2839516Y296824D01*
X-2850845Y304444D01*
X-2857449Y307695D01*
G37*
G36*
X-328015Y297078D02*
G01*
X-319379Y298348D01*
X-311099Y301193D01*
X-303631Y305562D01*
X-297027Y311251D01*
X-291592Y318109D01*
X-287629Y325831D01*
X-285140Y334213D01*
X-284327Y342900D01*
X-285140Y351586D01*
X-287629Y359968D01*
X-291592Y367690D01*
X-297027Y374548D01*
X-302920Y379679D01*
X-305511Y383133D01*
X-306425Y387350D01*
X-305511Y391566D01*
X-302920Y395020D01*
X-297027Y400151D01*
X-291592Y407009D01*
X-287629Y414731D01*
X-285140Y423113D01*
X-284327Y431800D01*
X-285140Y440486D01*
X-287629Y448868D01*
X-291592Y456590D01*
X-297027Y463448D01*
X-303631Y469138D01*
X-311099Y473506D01*
X-319379Y476351D01*
X-328015Y477621D01*
X-336702Y477215D01*
X-345236Y475132D01*
X-353161Y471525D01*
X-360222Y466445D01*
X-366217Y460146D01*
X-370941Y452831D01*
X-374243Y444703D01*
X-375818Y436168D01*
X-375818Y427431D01*
X-374243Y418896D01*
X-370941Y410768D01*
X-366217Y403453D01*
X-360222Y397154D01*
X-358140Y395630D01*
X-355447Y392836D01*
X-353974Y389280D01*
X-353974Y385419D01*
X-355447Y381863D01*
X-358140Y379069D01*
X-360222Y377545D01*
X-366217Y371246D01*
X-370941Y363931D01*
X-374243Y355803D01*
X-375818Y347268D01*
X-375818Y338531D01*
X-374243Y329996D01*
X-370941Y321868D01*
X-366217Y314553D01*
X-360222Y308254D01*
X-353161Y303174D01*
X-345236Y299567D01*
X-336702Y297484D01*
G37*
G36*
X604215Y345795D02*
G01*
X612851Y347065D01*
X621080Y349910D01*
X628599Y354279D01*
X635152Y359968D01*
X640588Y366826D01*
X644601Y374548D01*
X646988Y382930D01*
X647852Y391617D01*
X646988Y400304D01*
X644601Y408686D01*
X640588Y416407D01*
X635152Y423265D01*
X628599Y428955D01*
X621080Y433324D01*
X612851Y436168D01*
X604215Y437438D01*
X595477Y437032D01*
X586994Y434949D01*
X579069Y431342D01*
X572008Y426262D01*
X565912Y419963D01*
X561238Y412648D01*
X558038Y404520D01*
X556361Y395986D01*
X556361Y387248D01*
X558038Y378714D01*
X561238Y370586D01*
X565912Y363270D01*
X572008Y356971D01*
X579069Y351891D01*
X586994Y348284D01*
X595477Y346202D01*
G37*
G36*
X-3157169Y363169D02*
G01*
X-3143554Y364083D01*
X-3130143Y366776D01*
X-3117138Y371144D01*
X-3104845Y377190D01*
X-3093516Y384810D01*
X-3083204Y393852D01*
X-3074162Y404114D01*
X-3066542Y415493D01*
X-3060547Y427786D01*
X-3056128Y440740D01*
X-3053486Y454151D01*
X-3052572Y467817D01*
X-3053486Y481482D01*
X-3056128Y494893D01*
X-3060547Y507847D01*
X-3066542Y520141D01*
X-3074162Y531520D01*
X-3083204Y541782D01*
X-3093516Y550824D01*
X-3104845Y558444D01*
X-3117138Y564489D01*
X-3130143Y568858D01*
X-3143554Y571550D01*
X-3157169Y572465D01*
X-3170834Y571550D01*
X-3184245Y568858D01*
X-3197199Y564489D01*
X-3209493Y558444D01*
X-3220872Y550824D01*
X-3231134Y541782D01*
X-3240176Y531520D01*
X-3247847Y520141D01*
X-3253892Y507847D01*
X-3258261Y494893D01*
X-3260902Y481482D01*
X-3261817Y467817D01*
X-3260902Y454151D01*
X-3258261Y440740D01*
X-3253892Y427786D01*
X-3247847Y415493D01*
X-3240176Y404114D01*
X-3231134Y393852D01*
X-3220872Y384810D01*
X-3209493Y377190D01*
X-3197199Y371144D01*
X-3184245Y366776D01*
X-3170834Y364083D01*
G37*
G36*
X-2903169Y363169D02*
G01*
X-2889554Y364083D01*
X-2876143Y366776D01*
X-2863138Y371144D01*
X-2850845Y377190D01*
X-2839516Y384810D01*
X-2829204Y393852D01*
X-2820162Y404114D01*
X-2812542Y415493D01*
X-2806547Y427786D01*
X-2802128Y440740D01*
X-2799486Y454151D01*
X-2798572Y467817D01*
X-2799486Y481482D01*
X-2802128Y494893D01*
X-2806547Y507847D01*
X-2812542Y520141D01*
X-2820162Y531520D01*
X-2829204Y541782D01*
X-2839516Y550824D01*
X-2850845Y558444D01*
X-2863138Y564489D01*
X-2876143Y568858D01*
X-2889554Y571550D01*
X-2903169Y572465D01*
X-2916834Y571550D01*
X-2930245Y568858D01*
X-2943199Y564489D01*
X-2955544Y558444D01*
X-2966872Y550824D01*
X-2977184Y541782D01*
X-2986176Y531520D01*
X-2993847Y520141D01*
X-2999841Y507847D01*
X-3004261Y494893D01*
X-3006902Y481482D01*
X-3007817Y467817D01*
X-3006902Y454151D01*
X-3004261Y440740D01*
X-2999841Y427786D01*
X-2993847Y415493D01*
X-2986176Y404114D01*
X-2977184Y393852D01*
X-2966872Y384810D01*
X-2955544Y377190D01*
X-2943199Y371144D01*
X-2930245Y366776D01*
X-2916834Y364083D01*
G37*
G36*
X-2903169Y617169D02*
G01*
X-2889554Y618083D01*
X-2876143Y620776D01*
X-2863138Y625144D01*
X-2850845Y631190D01*
X-2839516Y638810D01*
X-2829204Y647852D01*
X-2820162Y658114D01*
X-2812542Y669493D01*
X-2806547Y681786D01*
X-2802128Y694740D01*
X-2799486Y708152D01*
X-2798572Y721817D01*
X-2799486Y735482D01*
X-2802128Y748893D01*
X-2806547Y761847D01*
X-2812542Y774141D01*
X-2820162Y785520D01*
X-2829204Y795782D01*
X-2839516Y804824D01*
X-2850845Y812444D01*
X-2863138Y818489D01*
X-2876143Y822858D01*
X-2889554Y825550D01*
X-2903169Y826465D01*
X-2916834Y825550D01*
X-2930245Y822858D01*
X-2943199Y818489D01*
X-2955544Y812444D01*
X-2966872Y804824D01*
X-2977184Y795782D01*
X-2986176Y785520D01*
X-2993847Y774141D01*
X-2999841Y761847D01*
X-3004261Y748893D01*
X-3006902Y735482D01*
X-3007817Y721817D01*
X-3006902Y708152D01*
X-3004261Y694740D01*
X-2999841Y681786D01*
X-2993847Y669493D01*
X-2986176Y658114D01*
X-2977184Y647852D01*
X-2966872Y638810D01*
X-2955544Y631190D01*
X-2943199Y625144D01*
X-2930245Y620776D01*
X-2916834Y618083D01*
G37*
G36*
X-3235350Y617169D02*
G01*
X-3078988Y617169D01*
X-3072688Y617880D01*
X-3067202Y619810D01*
X-3062325Y622858D01*
X-3058261Y626973D01*
X-3055213Y631850D01*
X-3053283Y637336D01*
X-3052572Y643636D01*
X-3052572Y799998D01*
X-3053283Y806297D01*
X-3055213Y811784D01*
X-3058261Y816660D01*
X-3062325Y820775D01*
X-3067202Y823823D01*
X-3072688Y825753D01*
X-3078988Y826465D01*
X-3235350Y826465D01*
X-3241649Y825753D01*
X-3247136Y823823D01*
X-3252012Y820775D01*
X-3256178Y816660D01*
X-3259226Y811784D01*
X-3261156Y806297D01*
X-3261817Y799998D01*
X-3261817Y643636D01*
X-3261156Y637336D01*
X-3259226Y631850D01*
X-3256178Y626973D01*
X-3252012Y622858D01*
X-3247136Y619810D01*
X-3241649Y617880D01*
G37*
G36*
X-3416249Y863092D02*
G01*
X-3400907Y864057D01*
X-3385769Y866800D01*
X-3371087Y871372D01*
X-3357016Y877722D01*
X-3343859Y885698D01*
X-3331718Y895197D01*
X-3320846Y906068D01*
X-3311398Y918159D01*
X-3303371Y931367D01*
X-3297072Y945387D01*
X-3292500Y960069D01*
X-3289706Y975207D01*
X-3288792Y990600D01*
X-3289706Y1005992D01*
X-3292500Y1021130D01*
X-3297072Y1035812D01*
X-3303371Y1049832D01*
X-3311398Y1063040D01*
X-3320846Y1075131D01*
X-3331718Y1086002D01*
X-3343859Y1095502D01*
X-3357016Y1103477D01*
X-3371087Y1109827D01*
X-3385769Y1114399D01*
X-3400907Y1117142D01*
X-3416249Y1118108D01*
X-3431692Y1117142D01*
X-3446830Y1114399D01*
X-3461461Y1109827D01*
X-3475583Y1103477D01*
X-3488740Y1095502D01*
X-3500882Y1086002D01*
X-3511753Y1075131D01*
X-3521201Y1063040D01*
X-3529228Y1049832D01*
X-3535476Y1035812D01*
X-3540099Y1021130D01*
X-3542893Y1005992D01*
X-3543757Y990600D01*
X-3542893Y975207D01*
X-3540099Y960069D01*
X-3535476Y945387D01*
X-3529228Y931367D01*
X-3521201Y918159D01*
X-3511753Y906068D01*
X-3500882Y895197D01*
X-3488740Y885698D01*
X-3475583Y877722D01*
X-3461461Y871372D01*
X-3446830Y866800D01*
X-3431692Y864057D01*
G37*
G36*
X1498650Y863092D02*
G01*
X1513992Y864057D01*
X1529130Y866800D01*
X1543812Y871372D01*
X1557832Y877722D01*
X1570990Y885698D01*
X1583131Y895197D01*
X1594002Y906068D01*
X1603552Y918159D01*
X1611477Y931367D01*
X1617827Y945387D01*
X1622348Y960069D01*
X1625193Y975207D01*
X1626107Y990600D01*
X1625193Y1005992D01*
X1622348Y1021130D01*
X1617827Y1035812D01*
X1611477Y1049832D01*
X1603552Y1063040D01*
X1594002Y1075131D01*
X1583131Y1086002D01*
X1570990Y1095502D01*
X1557832Y1103477D01*
X1543812Y1109827D01*
X1529130Y1114399D01*
X1513992Y1117142D01*
X1498650Y1118108D01*
X1483258Y1117142D01*
X1468069Y1114399D01*
X1453438Y1109827D01*
X1439367Y1103477D01*
X1426210Y1095502D01*
X1414068Y1086002D01*
X1403197Y1075131D01*
X1393647Y1063040D01*
X1385722Y1049832D01*
X1379372Y1035812D01*
X1374851Y1021130D01*
X1372006Y1005992D01*
X1371092Y990600D01*
X1372006Y975207D01*
X1374851Y960069D01*
X1379372Y945387D01*
X1385722Y931367D01*
X1393647Y918159D01*
X1403197Y906068D01*
X1414068Y895197D01*
X1426210Y885698D01*
X1439367Y877722D01*
X1453438Y871372D01*
X1468069Y866800D01*
X1483258Y864057D01*
G37*
G36*
X-494334Y1021029D02*
G01*
X-484581Y1021892D01*
X-475081Y1024432D01*
X-466191Y1028598D01*
X-458165Y1034237D01*
X-451154Y1041196D01*
X-445566Y1049223D01*
X-441401Y1058113D01*
X-438861Y1067612D01*
X-437997Y1077417D01*
X-438861Y1087221D01*
X-441401Y1096721D01*
X-445566Y1105611D01*
X-451154Y1113637D01*
X-458165Y1120597D01*
X-466191Y1126236D01*
X-475081Y1130401D01*
X-484581Y1132941D01*
X-494334Y1133805D01*
X-504190Y1132941D01*
X-513638Y1130401D01*
X-522579Y1126236D01*
X-530606Y1120597D01*
X-537565Y1113637D01*
X-543204Y1105611D01*
X-547319Y1096721D01*
X-549910Y1087221D01*
X-550722Y1077417D01*
X-549910Y1067612D01*
X-547319Y1058113D01*
X-543204Y1049223D01*
X-537565Y1041196D01*
X-530606Y1034237D01*
X-522579Y1028598D01*
X-513638Y1024432D01*
X-504190Y1021892D01*
G37*
G36*
X-1207566Y1330604D02*
G01*
X-1204772Y1331772D01*
X-1193647Y1338580D01*
X-1183436Y1346860D01*
X-1174496Y1356410D01*
X-1166977Y1367129D01*
X-1160983Y1378712D01*
X-1156563Y1391056D01*
X-1153922Y1403858D01*
X-1153007Y1417269D01*
X-1153007Y1440586D01*
X-1207566Y1440586D01*
G37*
G36*
X-560222Y1330604D02*
G01*
X-560222Y1440586D01*
X-614781Y1440586D01*
X-614781Y1417269D01*
X-613867Y1403858D01*
X-611225Y1391056D01*
X-606806Y1378712D01*
X-600811Y1367129D01*
X-593242Y1356410D01*
X-584352Y1346860D01*
X-574192Y1338580D01*
X-563067Y1331772D01*
G37*
G36*
X-477570Y1330604D02*
G01*
X-474827Y1331772D01*
X-463600Y1338580D01*
X-453491Y1346860D01*
X-444550Y1356410D01*
X-436981Y1367129D01*
X-430936Y1378712D01*
X-426618Y1391056D01*
X-423926Y1403858D01*
X-423011Y1417269D01*
X-423011Y1440586D01*
X-477570Y1440586D01*
G37*
G36*
X-1290218Y1330604D02*
G01*
X-1290218Y1440586D01*
X-1344777Y1440586D01*
X-1344777Y1417269D01*
X-1343863Y1403858D01*
X-1341272Y1391056D01*
X-1336852Y1378712D01*
X-1330807Y1367129D01*
X-1323238Y1356410D01*
X-1314399Y1346860D01*
X-1304188Y1338580D01*
X-1293063Y1331772D01*
G37*
G36*
X469950Y1340612D02*
G01*
X479704Y1341475D01*
X489204Y1344015D01*
X498093Y1348181D01*
X506120Y1353820D01*
X513130Y1360779D01*
X518718Y1368806D01*
X522884Y1377696D01*
X525424Y1387195D01*
X526288Y1397000D01*
X525424Y1406804D01*
X522884Y1416304D01*
X518718Y1425194D01*
X513130Y1433220D01*
X506120Y1440180D01*
X498093Y1445818D01*
X489204Y1449984D01*
X479704Y1452524D01*
X469950Y1453388D01*
X460095Y1452524D01*
X450596Y1449984D01*
X441706Y1445818D01*
X433679Y1440180D01*
X426669Y1433220D01*
X421081Y1425194D01*
X416915Y1416304D01*
X414375Y1406804D01*
X413512Y1397000D01*
X414375Y1387195D01*
X416915Y1377696D01*
X421081Y1368806D01*
X426669Y1360779D01*
X433679Y1353820D01*
X441706Y1348181D01*
X450596Y1344015D01*
X460095Y1341475D01*
G37*
G36*
X-723849Y1404112D02*
G01*
X-714095Y1404975D01*
X-704596Y1407515D01*
X-695706Y1411681D01*
X-687679Y1417320D01*
X-680669Y1424279D01*
X-675081Y1432306D01*
X-670915Y1441196D01*
X-668375Y1450695D01*
X-667512Y1460500D01*
X-668375Y1470304D01*
X-670915Y1479804D01*
X-675081Y1488694D01*
X-680669Y1496720D01*
X-687679Y1503680D01*
X-695706Y1509318D01*
X-704596Y1513484D01*
X-714095Y1516024D01*
X-723849Y1516888D01*
X-733704Y1516024D01*
X-743204Y1513484D01*
X-752094Y1509318D01*
X-760120Y1503680D01*
X-767130Y1496720D01*
X-772718Y1488694D01*
X-776884Y1479804D01*
X-779424Y1470304D01*
X-780288Y1460500D01*
X-779424Y1450695D01*
X-776884Y1441196D01*
X-772718Y1432306D01*
X-767130Y1424279D01*
X-760120Y1417320D01*
X-752094Y1411681D01*
X-743204Y1407515D01*
X-733704Y1404975D01*
G37*
G36*
X645718Y1520952D02*
G01*
X678230Y1520952D01*
X678230Y1579880D01*
X619302Y1579880D01*
X619302Y1547418D01*
X619963Y1541119D01*
X621893Y1535633D01*
X624992Y1530756D01*
X629056Y1526641D01*
X633933Y1523593D01*
X639368Y1521663D01*
G37*
G36*
X769670Y1520952D02*
G01*
X802081Y1520952D01*
X808431Y1521663D01*
X813866Y1523593D01*
X818743Y1526641D01*
X822858Y1530756D01*
X825906Y1535633D01*
X827836Y1541119D01*
X828598Y1547418D01*
X828598Y1579880D01*
X769670Y1579880D01*
G37*
G36*
X215950Y1520952D02*
G01*
X229565Y1521866D01*
X243027Y1524558D01*
X255981Y1528927D01*
X268224Y1534972D01*
X279552Y1542592D01*
X289915Y1551635D01*
X298856Y1561896D01*
X306527Y1573276D01*
X312572Y1585569D01*
X316992Y1598523D01*
X319582Y1611934D01*
X320497Y1625600D01*
X319582Y1639265D01*
X316992Y1652676D01*
X312572Y1665630D01*
X306527Y1677924D01*
X298856Y1689303D01*
X289915Y1699564D01*
X279552Y1708607D01*
X268224Y1716227D01*
X255981Y1722272D01*
X243027Y1726641D01*
X229565Y1729333D01*
X215950Y1730248D01*
X202234Y1729333D01*
X188772Y1726641D01*
X175818Y1722272D01*
X163576Y1716227D01*
X152247Y1708607D01*
X141935Y1699564D01*
X132943Y1689303D01*
X125272Y1677924D01*
X119227Y1665630D01*
X114808Y1652676D01*
X112217Y1639265D01*
X111302Y1625600D01*
X112217Y1611934D01*
X114808Y1598523D01*
X119227Y1585569D01*
X125272Y1573276D01*
X132943Y1561896D01*
X141935Y1551635D01*
X152247Y1542592D01*
X163576Y1534972D01*
X175818Y1528927D01*
X188772Y1524558D01*
X202234Y1521866D01*
G37*
G36*
X-38049Y1520952D02*
G01*
X-24434Y1521866D01*
X-10972Y1524558D01*
X1981Y1528927D01*
X14224Y1534972D01*
X25552Y1542592D01*
X35915Y1551635D01*
X44856Y1561896D01*
X52527Y1573276D01*
X58572Y1585569D01*
X62991Y1598523D01*
X65582Y1611934D01*
X66497Y1625600D01*
X65582Y1639265D01*
X62991Y1652676D01*
X58572Y1665630D01*
X52527Y1677924D01*
X44856Y1689303D01*
X35915Y1699564D01*
X25552Y1708607D01*
X14224Y1716227D01*
X1981Y1722272D01*
X-10972Y1726641D01*
X-24434Y1729333D01*
X-38049Y1730248D01*
X-51765Y1729333D01*
X-65227Y1726641D01*
X-78181Y1722272D01*
X-90424Y1716227D01*
X-101752Y1708607D01*
X-112064Y1699564D01*
X-121056Y1689303D01*
X-128727Y1677924D01*
X-134772Y1665630D01*
X-139192Y1652676D01*
X-141782Y1639265D01*
X-142697Y1625600D01*
X-141782Y1611934D01*
X-139192Y1598523D01*
X-134772Y1585569D01*
X-128727Y1573276D01*
X-121056Y1561896D01*
X-112064Y1551635D01*
X-101752Y1542592D01*
X-90424Y1534972D01*
X-78181Y1528927D01*
X-65227Y1524558D01*
X-51765Y1521866D01*
G37*
G36*
X469950Y1520952D02*
G01*
X483565Y1521866D01*
X497027Y1524558D01*
X509981Y1528927D01*
X522224Y1534972D01*
X533552Y1542592D01*
X543915Y1551635D01*
X552856Y1561896D01*
X560527Y1573276D01*
X566572Y1585569D01*
X570992Y1598523D01*
X573582Y1611934D01*
X574497Y1625600D01*
X573582Y1639265D01*
X570992Y1652676D01*
X566572Y1665630D01*
X560527Y1677924D01*
X552856Y1689303D01*
X543915Y1699564D01*
X533552Y1708607D01*
X522224Y1716227D01*
X509981Y1722272D01*
X497027Y1726641D01*
X483565Y1729333D01*
X469950Y1730248D01*
X456234Y1729333D01*
X442772Y1726641D01*
X429818Y1722272D01*
X417576Y1716227D01*
X406247Y1708607D01*
X395935Y1699564D01*
X386943Y1689303D01*
X379272Y1677924D01*
X373227Y1665630D01*
X368808Y1652676D01*
X366217Y1639265D01*
X365302Y1625600D01*
X366217Y1611934D01*
X368808Y1598523D01*
X373227Y1585569D01*
X379272Y1573276D01*
X386943Y1561896D01*
X395935Y1551635D01*
X406247Y1542592D01*
X417576Y1534972D01*
X429818Y1528927D01*
X442772Y1524558D01*
X456234Y1521866D01*
G37*
G36*
X-1207566Y1653286D02*
G01*
X-1153007Y1653286D01*
X-1153007Y1676552D01*
X-1153922Y1689963D01*
X-1156563Y1702816D01*
X-1160983Y1715109D01*
X-1166977Y1726742D01*
X-1174496Y1737410D01*
X-1183436Y1747012D01*
X-1193647Y1755241D01*
X-1204772Y1762048D01*
X-1207566Y1763268D01*
G37*
G36*
X-614781Y1653286D02*
G01*
X-560222Y1653286D01*
X-560222Y1763268D01*
X-563067Y1762048D01*
X-574192Y1755241D01*
X-584352Y1747012D01*
X-593242Y1737410D01*
X-600811Y1726742D01*
X-606806Y1715109D01*
X-611225Y1702816D01*
X-613867Y1689963D01*
X-614781Y1676552D01*
G37*
G36*
X-477570Y1653286D02*
G01*
X-423011Y1653286D01*
X-423011Y1676552D01*
X-423926Y1689963D01*
X-426618Y1702816D01*
X-430936Y1715109D01*
X-436981Y1726742D01*
X-444550Y1737410D01*
X-453491Y1747012D01*
X-463600Y1755241D01*
X-474827Y1762048D01*
X-477570Y1763268D01*
G37*
G36*
X-1344777Y1653286D02*
G01*
X-1290218Y1653286D01*
X-1290218Y1763268D01*
X-1293063Y1762048D01*
X-1304188Y1755241D01*
X-1314399Y1747012D01*
X-1323238Y1737410D01*
X-1330807Y1726742D01*
X-1336852Y1715109D01*
X-1341272Y1702816D01*
X-1343863Y1689963D01*
X-1344777Y1676552D01*
G37*
G36*
X619302Y1671320D02*
G01*
X678230Y1671320D01*
X678230Y1730248D01*
X645718Y1730248D01*
X639368Y1729536D01*
X633933Y1727606D01*
X629056Y1724558D01*
X624992Y1720443D01*
X621893Y1715566D01*
X619963Y1710080D01*
X619302Y1703781D01*
G37*
G36*
X769670Y1671320D02*
G01*
X828598Y1671320D01*
X828598Y1703781D01*
X827836Y1710080D01*
X825906Y1715566D01*
X822858Y1720443D01*
X818743Y1724558D01*
X813866Y1727606D01*
X808431Y1729536D01*
X802081Y1730248D01*
X769670Y1730248D01*
G37*

%LPD*%
G36*
X802640Y1704339D02*
G01*
X645159Y1704339D01*
X645159Y1546860D01*
X802640Y1546860D01*
G37*
D26*
G01*
X469900Y1625600D03*
G01*
X215900Y1625600D03*
G01*
X-38100Y1625600D03*
D27*
G01*
X-540994Y-2844190D03*
G01*
X-540994Y-3332175D03*
D26*
G01*
X-2903194Y213817D03*
G01*
X-3157194Y213817D03*
G01*
X-2903194Y467817D03*
G01*
X-3157194Y467817D03*
G01*
X-2903194Y721817D03*
D25*
G01*
X-3157194Y721817D03*
D26*
G01*
X2227605Y-2351582D03*
G01*
X2227605Y-2605582D03*
G01*
X2227605Y-2859582D03*
G01*
X2227605Y-3113582D03*
G01*
X2227605Y-3367582D03*
D25*
G01*
X2227605Y-3621582D03*
D16*
G01*
X-3175000Y25400D03*
G01*
X-2908300Y25400D03*
G01*
X-494385Y1077417D03*
G01*
X-2585694Y-3100882D03*
G01*
X-2468905Y-2984093D03*
G01*
X-3042894Y-3469182D03*
G01*
X-3119094Y-3545382D03*
G01*
X55905Y-3102711D03*
G01*
X-1796008Y1219403D03*
G01*
X-1629079Y1386331D03*
G01*
X-1760194Y-27482D03*
G01*
X-1137894Y3606D03*
G01*
X-629894Y-141782D03*
D17*
G01*
X602005Y74117D03*
G01*
X602005Y175717D03*
G01*
X602005Y-141782D03*
G01*
X602005Y277317D03*
G01*
X602005Y391617D03*
G01*
X-330200Y127000D03*
G01*
X-330200Y228600D03*
G01*
X-330200Y-177800D03*
G01*
X88900Y127000D03*
G01*
X-330200Y-254000D03*
G01*
X-330200Y431800D03*
G01*
X-330200Y342900D03*
D16*
G01*
X-139674Y-389686D03*
G01*
X331749Y-393750D03*
G01*
X-2387600Y-3149600D03*
G01*
X-2387600Y-3302000D03*
G01*
X-2578100Y-3289300D03*
D17*
G01*
X-2971774Y-368350D03*
G01*
X-3009900Y-279400D03*
G01*
X-3086074Y-368350D03*
G01*
X-3048000Y-317500D03*
G01*
X-1600200Y-3060700D03*
G01*
X-2971774Y-2108250D03*
G01*
X-3009874Y-2349550D03*
G01*
X-3047974Y-3352850D03*
G01*
X1435125Y-2133650D03*
G01*
X1346200Y-2222500D03*
G01*
X1270000Y-2298700D03*
G01*
X1193825Y-2374950D03*
G01*
X1130325Y-2438450D03*
G01*
X-1816100Y-3390900D03*
G01*
X-1816074Y-3543350D03*
G01*
X-1701800Y-3632200D03*
G01*
X-1625600Y-3708400D03*
G01*
X-1079500Y-1384300D03*
G01*
X-508000Y-266700D03*
G01*
X-1231900Y-1562100D03*
G01*
X-2387600Y-1981200D03*
G01*
X-990600Y-1638300D03*
G01*
X-927100Y-1689100D03*
G01*
X-2387600Y-1816100D03*
G01*
X-2590800Y-2095500D03*
G01*
X-838174Y-1739950D03*
G01*
X-1003300Y-3263900D03*
G01*
X-3695674Y-3225850D03*
G01*
X-3695700Y-2908300D03*
G01*
X-3276600Y-1511300D03*
G01*
X-3276600Y-1600200D03*
G01*
X1612925Y-2019350D03*
G01*
X-774700Y-1587500D03*
G01*
X635000Y-660400D03*
G01*
X127000Y-1282700D03*
G01*
X-114300Y-1993900D03*
G01*
X-1714500Y-2019300D03*
G01*
X-2857500Y-1955800D03*
G01*
X-1308100Y-1511300D03*
G01*
X914400Y-736600D03*
G01*
X914400Y-342900D03*
G01*
X-2755900Y-1422400D03*
G01*
X-2908300Y-2184400D03*
D16*
G01*
X469900Y1397000D03*
G01*
X-723900Y1460500D03*
D28*
X-518896Y1416911D02*
G01*
X-518896Y1676910D01*
X-1248892Y1416911D02*
G01*
X-1248892Y1676910D01*
M02*
